<?xml version="1.0" encoding="utf-8"?>
<!-- Generator: Adobe Illustrator 27.5.0, SVG Export Plug-In . SVG Version: 6.00 Build 0)  -->
<svg version="1.1" xmlns="http://www.w3.org/2000/svg" xmlns:xlink="http://www.w3.org/1999/xlink" x="0px" y="0px"
	 viewBox="0 0 660.738 500" style="enable-background:new 0 0 660.738 500;" xml:space="preserve">
<g id="BACKGROUND">
	<rect style="fill:#FFFFFF;" width="660.738" height="500"/>
</g>
<g id="OBJECTS">
	<g>
		<ellipse style="fill:#F5DDB8;" cx="346.299" cy="252.054" rx="212.469" ry="204.073"/>
		<ellipse style="fill:#F5DDB8;" cx="500.166" cy="136.609" rx="111.561" ry="107.153"/>
		<ellipse style="fill:#F5DDB8;" cx="200.771" cy="377.989" rx="111.561" ry="107.153"/>
		<ellipse style="fill:#F5DDB8;" cx="478.13" cy="332.91" rx="152.023" ry="146.016"/>
		<ellipse style="fill:#F5DDB8;" cx="187.093" cy="164.392" rx="131.136" ry="125.954"/>
	</g>
	<g>
		<defs>
			<path id="SVGID_1_" d="M616.694,272.218c-17.05-35.776-20.273-76.723-7.291-114.167c3.691-10.647,5.69-22.036,5.69-33.875
				c0-59.179-49.947-107.153-111.561-107.153c-36.006,0-68.023,16.388-88.421,41.818c-21.509-7.038-44.566-10.861-68.555-10.861
				c-28.126,0-54.969,5.261-79.539,14.796c-23.928-24.539-57.959-39.879-95.725-39.879c-72.424,0-131.136,56.392-131.136,125.955
				c0,57.435,40.469,110.084,95.19,125.234c0.606,6.721,1.107,9.152,2.375,15.672c-29.148,19.331-48.253,51.636-48.253,88.232
				c0,59.179,49.947,107.152,111.561,107.152c33.924,0,64.307-14.547,84.768-37.497c19.253,5.509,39.643,8.483,60.76,8.483
				c14.941,0,29.519-1.489,43.59-4.307c24.88,17.064,55.339,27.106,88.241,27.106c83.96,0,152.023-65.373,152.023-146.016
				C630.412,311.254,625.502,290.7,616.694,272.218z"/>
		</defs>
		<clipPath id="SVGID_00000034081970537545137950000001927858695121682357_">
			<use xlink:href="#SVGID_1_"  style="overflow:visible;"/>
		</clipPath>
		<g style="clip-path:url(#SVGID_00000034081970537545137950000001927858695121682357_);">
			<line style="fill:none;stroke:#C79E7D;stroke-miterlimit:10;" x1="543.39" y1="347.122" x2="543.39" y2="377.424"/>
			<line style="fill:none;stroke:#C79E7D;stroke-miterlimit:10;" x1="572.915" y1="295.842" x2="572.915" y2="326.144"/>
			<line style="fill:none;stroke:#C79E7D;stroke-miterlimit:10;" x1="562.815" y1="294.64" x2="562.815" y2="323.813"/>
			<line style="fill:none;stroke:#C79E7D;stroke-miterlimit:10;" x1="568.253" y1="283.41" x2="568.253" y2="331.583"/>
			<line style="fill:none;stroke:#C79E7D;stroke-miterlimit:10;" x1="548.829" y1="351.784" x2="548.829" y2="382.086"/>
			<rect x="537.041" y="363.267" style="fill:#D9AC88;" width="31.941" height="131.863"/>
			<rect x="557.242" y="308.101" style="fill:#D9AC88;" width="25.47" height="131.863"/>
			<g style="opacity:0.76;">
				<polyline style="fill:none;stroke:#C79E7D;stroke-miterlimit:10;" points="443.982,216.684 419.604,178.441 415.851,178.027 
					386.42,210.634 				"/>
				<line style="fill:none;stroke:#BD997F;stroke-miterlimit:10;" x1="161.296" y1="151.887" x2="161.296" y2="531.322"/>
				<line style="fill:none;stroke:#BD997F;stroke-miterlimit:10;" x1="181.74" y1="151.887" x2="181.74" y2="531.322"/>
				<line style="fill:none;stroke:#BD997F;stroke-miterlimit:10;" x1="180.104" y1="151.887" x2="180.104" y2="531.322"/>
				<line style="fill:none;stroke:#BD997F;stroke-miterlimit:10;" x1="196.459" y1="151.887" x2="196.459" y2="531.322"/>
				<line style="fill:none;stroke:#BD997F;stroke-miterlimit:10;" x1="182.161" y1="126.476" x2="424.378" y2="153.223"/>
				<line style="fill:none;stroke:#BD997F;stroke-miterlimit:10;" x1="180.905" y1="137.855" x2="423.121" y2="164.603"/>
				<polyline style="fill:none;stroke:#BD997F;stroke-miterlimit:10;" points="417.944,164.305 406.496,151.249 391.452,160.831 
					378.861,148.197 365.201,157.658 353.965,145.173 340.516,155.206 329.821,142.782 313.121,152.456 302.999,139.82 
					285.757,149.434 275.062,137.009 259.145,147.043 249.353,133.895 231.269,143.691 218.467,130.485 203.121,140.308 
					194.112,127.521 				"/>
				<polyline style="fill:none;stroke:#BD997F;stroke-miterlimit:10;" points="162.172,153.702 181.051,175.781 161.914,198.678 
					181.826,218.85 162.431,236.022 182.085,257.556 161.914,276.91 182.085,296.808 161.914,318.887 181.568,338.513 				"/>
				<polyline style="fill:none;stroke:#BD997F;stroke-miterlimit:10;" points="181.397,153.357 195.482,175.436 181.204,198.333 
					196.061,218.504 181.589,235.677 196.254,257.211 181.204,276.564 196.254,296.463 181.204,318.542 195.868,338.168 				"/>
				<polyline style="fill:none;stroke:#C79E7D;stroke-miterlimit:10;" points="88.253,121.605 182.27,67.404 422.301,153.405 				
					"/>
				
					<rect x="349.63" y="145.277" transform="matrix(-0.994 -0.1098 0.1098 -0.994 752.7931 334.7805)" style="fill:#C79E7D;" width="71.962" height="2.787"/>
				
					<rect x="257.42" y="107.318" transform="matrix(0.1098 -0.994 0.994 0.1098 98.5395 375.3563)" style="fill:#C79E7D;" width="2.787" height="50.7"/>
				
					<rect x="415.398" y="148.232" transform="matrix(-0.994 -0.1098 0.1098 -0.994 818.0342 372.9768)" style="fill:#C79E7D;" width="7.769" height="31.483"/>
				<polygon style="fill:none;stroke:#BD997F;stroke-miterlimit:10;" points="73.978,130.161 171.921,140.976 173.133,130.003 
					81.497,120.659 				"/>
				<polygon style="fill:#C79E7D;" points="155.287,153.901 203.743,153.852 204.036,123.188 189.052,113.391 155.673,113.424 				
					"/>
				
					<rect x="392.337" y="223.501" transform="matrix(-0.994 -0.1098 0.1098 -0.994 796.2745 511.3983)" style="fill:#C79E7D;" width="39.751" height="20.564"/>
				
					<rect x="381.993" y="211.561" transform="matrix(-0.994 -0.1098 0.1098 -0.994 801.0934 482.4521)" style="fill:#C79E7D;" width="63.665" height="15.231"/>
				<rect x="176.936" y="63.332" style="fill:#C79E7D;" width="3.15" height="64.256"/>
			</g>
			<rect x="182.74" y="246.202" style="fill:#3A6A6B;" width="38.527" height="236.494"/>
			<rect x="174.452" y="246.202" style="fill:#479E88;" width="38.527" height="236.494"/>
			<g>
				<line style="fill:none;stroke:#19303B;stroke-miterlimit:10;" x1="579.296" y1="120.027" x2="579.296" y2="338.645"/>
				<line style="fill:none;stroke:#19303B;stroke-miterlimit:10;" x1="599.792" y1="120.027" x2="599.792" y2="338.645"/>
				<g>
					<polyline style="fill:none;stroke:#19303B;stroke-miterlimit:10;" points="234.517,168.001 262.854,132.779 266.617,132.779 
						292.208,168.305 					"/>
					<line style="fill:none;stroke:#19303B;stroke-miterlimit:10;" x1="522.533" y1="123.575" x2="522.533" y2="501.786"/>
					<line style="fill:none;stroke:#19303B;stroke-miterlimit:10;" x1="502.155" y1="123.575" x2="502.155" y2="501.786"/>
					<line style="fill:none;stroke:#19303B;stroke-miterlimit:10;" x1="503.786" y1="123.575" x2="503.786" y2="501.786"/>
					<line style="fill:none;stroke:#19303B;stroke-miterlimit:10;" x1="487.484" y1="123.575" x2="487.484" y2="501.786"/>
					<line style="fill:none;stroke:#19303B;stroke-miterlimit:10;" x1="503.786" y1="107.272" x2="260.883" y2="107.272"/>
					<line style="fill:none;stroke:#19303B;stroke-miterlimit:10;" x1="503.786" y1="118.684" x2="260.883" y2="118.684"/>
					<polyline style="fill:none;stroke:#19303B;stroke-miterlimit:10;" points="266.045,118.955 278.815,107.272 292.672,118.412 
						306.529,107.272 319.027,118.14 331.526,107.001 343.752,118.412 355.707,107.272 371.194,118.684 382.606,107.272 
						398.637,118.684 410.591,107.544 425.263,119.227 436.403,107.272 453.249,118.955 467.378,107.272 481.506,118.684 
						491.831,107.001 					"/>
					<polyline style="fill:none;stroke:#19303B;stroke-miterlimit:10;" points="522.004,137.431 503.187,159.439 522.262,182.262 
						502.413,202.368 521.746,219.486 502.155,240.95 522.262,260.241 502.155,280.076 522.262,302.084 502.671,321.646 					"/>
					<polyline style="fill:none;stroke:#19303B;stroke-miterlimit:10;" points="503.174,137.431 488.299,159.439 503.378,182.262 
						487.687,202.368 502.971,219.486 487.484,240.95 503.378,260.241 487.484,280.076 503.378,302.084 487.891,321.646 					"/>
					<polyline style="fill:none;stroke:#19303B;stroke-miterlimit:10;" points="600.376,115.423 513.159,51.437 262.921,107.68 
											"/>
					<rect x="264.143" y="103.632" style="fill:#BD4F4F;" width="71.73" height="2.778"/>
					<rect x="401.897" y="103.632" style="fill:#BD4F4F;" width="50.537" height="2.778"/>
					<rect x="260.883" y="102.789" style="fill:#BD4F4F;" width="7.744" height="31.382"/>
					<rect x="512.344" y="111.755" style="fill:#BD4F4F;" width="98.221" height="11.004"/>
					<rect x="571.032" y="125.205" style="fill:#325578;" width="37.087" height="6.113"/>
					<rect x="571.032" y="134.986" style="fill:#325578;" width="37.087" height="6.113"/>
					<rect x="571.032" y="144.767" style="fill:#325578;" width="37.087" height="6.113"/>
					<rect x="509.899" y="44.101" style="fill:#325578;" width="3.668" height="53.797"/>
					<polygon style="fill:#325578;" points="529.462,135.801 478.925,135.801 478.925,105.234 494.65,95.453 529.462,95.453 					
						"/>
					<polygon style="fill:none;stroke:#BF5068;stroke-miterlimit:10;" points="523.846,131.318 484.54,131.318 484.54,107.544 
						496.771,99.936 523.846,99.936 					"/>
					<rect x="228.674" y="178.169" style="fill:#325578;" width="70.894" height="6.216"/>
					<rect x="232.392" y="166.179" style="fill:#479E88;" width="63.46" height="15.182"/>
					<line style="fill:none;stroke:#19303B;stroke-miterlimit:10;" x1="230.968" y1="171.949" x2="296.731" y2="171.949"/>
				</g>
				<path style="fill:#BD4F4F;" d="M589.315,347.297L589.315,347.297c-8.504,0-15.397-6.894-15.397-15.397v-5.552h30.795v5.552
					C604.713,340.403,597.819,347.297,589.315,347.297z"/>
				<circle style="fill:#325578;" cx="580.207" cy="291.278" r="6.149"/>
				<path style="fill:#325578;" d="M606.396,290.822c0,3.396-2.753,6.149-6.149,6.149s-6.149-2.753-6.149-6.149
					c0-3.396,2.753-6.149,6.149-6.149S606.396,287.426,606.396,290.822z"/>
				<line style="fill:none;stroke:#19303B;stroke-miterlimit:10;" x1="600.247" y1="290.822" x2="578.385" y2="290.822"/>
				<path style="fill:#479E88;" d="M602.98,290.822c0,1.509-1.223,2.733-2.733,2.733c-1.509,0-2.733-1.224-2.733-2.733
					c0-1.509,1.223-2.733,2.733-2.733C601.756,288.089,602.98,289.313,602.98,290.822z"/>
				<path style="fill:#479E88;" d="M582.516,290.822c0,1.509-1.224,2.733-2.733,2.733c-1.509,0-2.733-1.224-2.733-2.733
					c0-1.509,1.224-2.733,2.733-2.733C581.293,288.089,582.516,289.313,582.516,290.822z"/>
			</g>
			<rect x="116.053" y="430.259" style="fill:#D9AC88;" width="496.488" height="78.475"/>
			<rect x="320.725" y="189.035" style="fill:none;stroke:#C79E7D;stroke-miterlimit:10;" width="166.015" height="236.494"/>
			<rect x="274.423" y="203.209" style="fill:none;stroke:#C79E7D;stroke-miterlimit:10;" width="92.756" height="236.494"/>
			<rect x="84.841" y="210.884" style="fill:#D9AC88;" width="50.109" height="211.726"/>
			<rect x="83.262" y="184.467" style="fill:#D9AC88;" width="12.862" height="211.726"/>
			<g>
				<line style="fill:none;stroke:#19303B;stroke-miterlimit:10;" x1="229.099" y1="356.612" x2="526.25" y2="356.612"/>
				<line style="fill:none;stroke:#19303B;stroke-miterlimit:10;" x1="229.099" y1="374.605" x2="526.25" y2="374.605"/>
				<line style="fill:none;stroke:#19303B;stroke-miterlimit:10;" x1="458.935" y1="223.77" x2="458.935" y2="278.584"/>
				<line style="fill:none;stroke:#19303B;stroke-miterlimit:10;" x1="468.551" y1="220.057" x2="468.551" y2="274.871"/>
				<line style="fill:none;stroke:#19303B;stroke-miterlimit:10;" x1="337.766" y1="237.233" x2="337.766" y2="292.047"/>
				<line style="fill:none;stroke:#19303B;stroke-miterlimit:10;" x1="347.383" y1="233.52" x2="347.383" y2="288.334"/>
				<line style="fill:none;stroke:#19303B;stroke-miterlimit:10;" x1="478.168" y1="229.673" x2="478.168" y2="274.871"/>
				<line style="fill:none;stroke:#19303B;stroke-miterlimit:10;" x1="251.217" y1="201.785" x2="251.217" y2="256.599"/>
				<line style="fill:none;stroke:#19303B;stroke-miterlimit:10;" x1="262.757" y1="197.939" x2="262.757" y2="252.753"/>
				<line style="fill:none;stroke:#19303B;stroke-miterlimit:10;" x1="275.259" y1="208.517" x2="275.259" y2="253.714"/>
				<rect x="243.524" y="224.865" style="fill:#3A6A6B;" width="46.16" height="224.066"/>
				<rect x="468.487" y="265.085" style="fill:#19303B;" width="38.53" height="183.845"/>
				<rect x="452.139" y="248.463" style="fill:#19303B;" width="38.53" height="200.467"/>
				<rect x="404.43" y="259.685" style="fill:#3A6A6B;" width="27.922" height="190.207"/>
				<rect x="379.2" y="252.753" style="fill:#19303B;" width="15.076" height="196.297"/>
				<rect x="335.925" y="252.753" style="fill:#19303B;" width="20.112" height="196.297"/>
				<rect x="240.639" y="224.865" style="fill:#479E88;" width="46.159" height="224.066"/>
				<rect x="465.602" y="265.085" style="fill:#479E88;" width="38.53" height="183.845"/>
				<rect x="449.254" y="248.463" style="fill:#479E88;" width="38.53" height="200.467"/>
				<rect x="401.545" y="271.22" style="fill:#479E88;" width="15.076" height="178.673"/>
				<rect x="376.315" y="252.753" style="fill:#479E88;" width="15.076" height="196.297"/>
				<rect x="333.04" y="252.753" style="fill:#479E88;" width="20.112" height="196.297"/>
				<rect x="227.176" y="290.257" style="opacity:0.56;fill:#19303B;" width="286.573" height="11.54"/>
				<rect x="227.176" y="285.449" style="fill:#479E88;" width="286.573" height="11.54"/>
				<rect x="468.487" y="303.348" style="fill:#F5DDB8;" width="8.851" height="145.583"/>
				<rect x="453.101" y="247.945" style="fill:#1FBFA7;" width="4.872" height="200.986"/>
				<line style="fill:none;stroke:#19303B;stroke-miterlimit:10;" x1="302.185" y1="337.379" x2="302.185" y2="447.007"/>
				<line style="fill:none;stroke:#19303B;stroke-miterlimit:10;" x1="318.533" y1="337.379" x2="318.533" y2="447.007"/>
				<line style="fill:none;stroke:#19303B;stroke-miterlimit:10;" x1="426.238" y1="337.379" x2="426.238" y2="447.007"/>
				<line style="fill:none;stroke:#19303B;stroke-miterlimit:10;" x1="442.586" y1="337.379" x2="442.586" y2="447.007"/>
			</g>
			<rect x="251.299" y="434.695" style="fill:#BD4F4F;" width="238.099" height="29.057"/>
			<path style="fill:#19303B;" d="M494.097,449.443c0,8.033-1.574,14.545-3.515,14.545s-3.515-6.512-3.515-14.545
				s1.574-14.545,3.515-14.545S494.097,441.41,494.097,449.443z"/>
			<path style="fill:#C9A369;" d="M56.567,491.13c14.865-19.063,31.052-37.094,48.4-53.929
				c14.764-14.326,33.631-31.545,56.014-27.963c11.418,1.827,21.057,9.199,30.161,16.329c26.424,20.695,42.479,42.806,55.564,73.643
				"/>
			<g>
				<rect x="294.057" y="415.207" style="fill:#E06767;" width="238.099" height="22.747"/>
				<path style="fill:none;stroke:#19303B;stroke-width:0.5;stroke-miterlimit:10;" d="M513.828,437.92
					c-1.631,0-2.953-5.077-2.953-11.339c0-6.263,1.322-11.339,2.953-11.339"/>
				<path style="fill:none;stroke:#19303B;stroke-width:0.5;stroke-miterlimit:10;" d="M469.416,437.92
					c-1.631,0-2.953-5.077-2.953-11.339c0-6.263,1.322-11.339,2.953-11.339"/>
				<path style="fill:none;stroke:#19303B;stroke-width:0.5;stroke-miterlimit:10;" d="M425.004,437.92
					c-1.631,0-2.953-5.077-2.953-11.339c0-6.263,1.322-11.339,2.953-11.339"/>
				<path style="fill:none;stroke:#19303B;stroke-width:0.5;stroke-miterlimit:10;" d="M380.591,437.92
					c-1.631,0-2.953-5.077-2.953-11.339c0-6.263,1.322-11.339,2.953-11.339"/>
				<path style="fill:none;stroke:#19303B;stroke-width:0.5;stroke-miterlimit:10;" d="M336.179,437.92
					c-1.631,0-2.953-5.077-2.953-11.339c0-6.263,1.322-11.339,2.953-11.339"/>
				<path style="fill:#BF5068;" d="M294.503,437.92c-1.631,0-2.953-5.077-2.953-11.339c0-6.263,1.322-11.339,2.953-11.339"/>
				<path style="fill:#19303B;" d="M535.181,426.58c0,6.263-1.322,11.339-2.953,11.339c-1.631,0-2.953-5.077-2.953-11.339
					c0-6.263,1.322-11.339,2.953-11.339C533.859,415.241,535.181,420.318,535.181,426.58z"/>
			</g>
			<path style="fill:#FFCF85;" d="M147.473,491.13c14.865-19.063,31.052-37.094,48.4-53.929
				c14.764-14.326,33.631-31.545,56.014-27.963c11.418,1.827,21.057,9.199,30.161,16.329c26.424,20.695,42.479,42.806,55.564,73.643
				"/>
			<path style="fill:#E6BA78;" d="M246.926,517.547c14.865-19.063,31.052-37.094,48.4-53.929
				c14.764-14.326,33.631-31.545,56.014-27.963c11.418,1.827,21.057,9.199,30.161,16.329c26.423,20.695,42.479,42.806,55.564,73.643
				"/>
		</g>
	</g>
	<g>
		<defs>
			<rect id="SVGID_00000003788632383088003210000006058380616871777177_" width="660.738" height="500"/>
		</defs>
		<clipPath id="SVGID_00000134218526486784863960000000169376898782754693_">
			<use xlink:href="#SVGID_00000003788632383088003210000006058380616871777177_"  style="overflow:visible;"/>
		</clipPath>
		<g style="clip-path:url(#SVGID_00000134218526486784863960000000169376898782754693_);">
			<path style="fill:#F0806C;" d="M258.789,317.704c2.625-3.164,5.538-6.132,8.211-9.214c0.622-0.717,1.285-1.463,2.179-1.785
				c0.894-0.321,2.081-0.039,2.435,0.843c0.286,0.712-0.049,1.508-0.38,2.202c-1.207,2.532-2.402,5.069-3.62,7.595
				c-0.932,1.934-2.303,3.609-3.379,5.493c-2.042,3.573-6.243,11.528-11.399,8.525c-0.356-0.208-0.7-0.472-0.878-0.844
				c-0.283-0.594-0.076-1.297,0.153-1.914C253.622,324.524,256.048,321.008,258.789,317.704z"/>
			<path style="fill:#BF6D5E;" d="M246.028,453.269c-5.808-0.139-11.579-0.492-17.259-1.156c-1.997-0.234-3.643-1.677-4.108-3.633
				c-0.395-1.659-1.09-3.3-1.624-4.917c-5.379-16.285-10.757-32.569-16.136-48.854c-6.686-20.243-14.01-39.608-14.063-61.301
				c-0.016-6.382,0.554-13.073,3.986-18.454c6.714-10.53,18.625-7.685,25.687,0.656c7.134,8.426,9.177,19.908,10.959,30.804
				c4.642,28.384,10.293,56.768,11.943,85.313c0.029,0.494,0.1,1.016,0.412,1.4c0.328,0.404,0.856,0.577,1.354,0.731
				c7.89,2.43,15.78,4.86,23.671,7.291c5.116,1.576,10.234,3.152,15.278,4.943c1.393,0.494,2.987,1.22,3.042,2.845
				c0.025,0.743-0.34,1.455-0.893,1.953c-1.183,1.065-2.758,1.178-4.262,1.264C271.548,452.858,258.7,453.572,246.028,453.269z"/>
			<g>
				<path style="fill:#FFFFFF;" d="M301.262,258.703c-12.34,11.127-21.704,25.475-28.658,40.641
					c-9.589,20.912-16.423,44.389-22.017,66.565c-0.66,2.617-8.663,40.873-10.306,40.873c0.05,0,112.779,0,112.779,0
					c4.184-16.594,7.032-49.299,19.362-86.426c3.811-11.476,10.014-24.28,16.831-33.91c6.764-9.555,14.371-18.479,21.527-27.744
					H301.262z"/>
				<path style="fill:none;stroke:#3A6A6B;stroke-miterlimit:10;stroke-dasharray:4;" d="M309.279,264.364
					c-36.147,40.974-47.883,82.94-55.14,127.305"/>
				<path style="fill:none;stroke:#3A6A6B;stroke-width:0.5;stroke-miterlimit:10;stroke-dasharray:4;" d="M315.495,264.019
					c-36.147,40.974-47.883,82.94-55.14,127.305"/>
				<polygon style="fill:none;stroke:#3A6A6B;stroke-width:0.5;stroke-miterlimit:10;" points="303.693,354.892 293.057,391.151 
					274.686,390.872 285.322,355.171 				"/>
				<path style="opacity:0.39;fill:#3A6A6B;" d="M326.14,311.773c-4.762-0.249-17.295-0.331-18.799-0.294
					c-9.654,20.526-16.996,49.158-23.85,79.499h46.36c0,0,11.655-50.245,23.568-78.475
					C344.518,312.177,335.034,312.238,326.14,311.773z"/>
				
					<line style="opacity:0.39;fill:none;stroke:#3A6A6B;stroke-miterlimit:10;" x1="343.837" y1="269.943" x2="386.57" y2="269.943"/>
				
					<line style="opacity:0.39;fill:none;stroke:#3A6A6B;stroke-miterlimit:10;" x1="339.952" y1="274.863" x2="381.391" y2="274.863"/>
				
					<line style="opacity:0.39;fill:none;stroke:#3A6A6B;stroke-miterlimit:10;" x1="337.017" y1="279.612" x2="375.175" y2="279.525"/>
				<path style="opacity:0.39;fill:#3A6A6B;" d="M333.136,274.46c-1.532,3.842-5.862,6.741-9.671,6.475
					c-3.809-0.266-5.654-3.596-4.122-7.438c1.532-3.842,5.862-6.741,9.671-6.475C332.823,267.288,334.669,270.618,333.136,274.46z"
					/>
				<g>
					
						<line style="fill:none;stroke:#3A6A6B;stroke-width:0.5;stroke-miterlimit:10;" x1="309.391" y1="303.957" x2="356.355" y2="304.993"/>
					<polygon style="fill:#3A6A6B;" points="313.88,300.849 307.664,303.957 310.772,308.101 					"/>
					<polygon style="fill:#3A6A6B;" points="356.657,301.798 360.052,305.783 354.455,309.18 					"/>
				</g>
				<g>
					<path style="fill:none;stroke:#3A6A6B;stroke-width:0.5;stroke-miterlimit:10;" d="M270.888,388.529
						c7.252-26.676,10.99-45.313,21.927-75.334"/>
					<polygon style="fill:#3A6A6B;" points="274.582,387.515 269.465,392.218 266.699,387.839 					"/>
					<polygon style="fill:#3A6A6B;" points="295.908,314.048 293.393,309.457 288.226,313.479 					"/>
				</g>
				<polyline style="opacity:0.39;fill:#3A6A6B;" points="298.513,334.69 329.851,390.978 284.268,390.892 				"/>
				<path style="fill:#E06767;" d="M315.824,390.952l14.027,0.027l-7.634-13.711c-2.547,2.533-4.26,5.918-5.334,9.407
					C316.451,388.078,316.103,389.507,315.824,390.952z"/>
				<polygon style="fill:none;stroke:#3A6A6B;stroke-miterlimit:10;stroke-dasharray:4;" points="362.484,321.482 351.606,364.475 
					322.081,363.957 				"/>
			</g>
			<path style="fill:#ED5151;" d="M197.733,516.234c-14.823,0.8-29.699,0.63-44.501-0.508
				c-4.314-12.714-12.062-40.834-16.376-53.548c-2.848-8.393-5.706-16.827-7.237-25.557c-2.582-14.729-1.262-30.123,3.79-44.197
				c3.065-8.538,7.647-16.789,14.692-22.504c7.045-5.715,16.862-8.524,25.462-5.639c9.937,3.334,13.296,11.696,12.419,21.023
				c-1.079,11.473,0.953,23.003,2.112,34.601C190.789,446.827,196.291,489.217,197.733,516.234z"/>
			<path style="fill:#ED5151;" d="M50.672,514.172c2.66-28.794,21.908-86.576,28.489-114.734
				c6.581-28.158,17.781-36.754,43.694-49.587c18.676,9.584,34.122,19.018,49.584,33.216c1.065,0.978,2.185,2.084,2.38,3.517
				c0.189,1.387-0.54,2.716-1.243,3.926c-21.893,37.677-74.083,130.615-75.767,131.69c-2.585,1.651-2.93,3.346-5.957,2.849
				C82.875,523.576,59.649,515.646,50.672,514.172z"/>
			<path style="fill:none;stroke:#000000;stroke-width:0.5;stroke-miterlimit:10;" d="M112.694,383.743
				c-25.718,56.559-50.777,113.418-75.171,170.561"/>
			<path style="fill:#44204D;" d="M101.098,265.935c2.595-7.035,6.253-13.496,12.181-17.922c8.724-6.513,20.368-7.103,31.25-7.438
				c28.145-0.867,61.599,8.69,73.468,37.583c8.374,20.384-7.42,40.312-14.068,59.306c-7.087,20.249-9.691,39.051-17.252,59.128
				c-0.362,0.96-0.767,1.978-1.603,2.573c-0.851,0.606-1.97,0.646-3.014,0.624c-6.522-0.135-12.905-1.786-19.218-3.428
				c-28.333-7.366-56.667-14.732-85-22.099c-0.487-0.127,17.548-87.451,19.388-95.027
				C98.306,274.811,99.501,270.264,101.098,265.935z"/>
			<path style="fill:#44204D;" d="M231.785,284.869c0.945,4.532,1.449,9.175,1.993,13.235c1.712,12.779,3.424,25.558,5.136,38.336
				c-10.963,5.548-22.993,7.712-34.84,10.811c-4.773,1.249-11.93,2.032-16.031,5.007c-0.242,0.175-0.813,0.395-0.8,0.775
				c-0.868-25.189-1.736-50.378-2.604-75.568c-0.275-7.993-2.088-22.672,8.574-24.377c4.249-0.679,5.395,2.178,9.263,4.065
				c7.431,3.624,18.644,6.976,23.771,13.845C229.104,274.825,230.723,279.777,231.785,284.869z"/>
			<path style="fill:#CADE33;" d="M191.67,386.732c4.227-21.542,7.731-43.213,11.207-64.887c-0.489-3.101-0.619-6.297-0.593-9.424
				c0.148-17.72,4.225-35.396,11.852-51.391c-4.008-1.482-8.016-2.963-12.023-4.445c-3.148,11.637-13.872,26.934-27.813,20.199
				c-6.439-3.11-11.451-6.689-13.43-14.016c-1.918-7.1-0.414-14.718,2.251-21.572c-4.786-0.917-9.611-1.616-14.456-2.13
				c-0.361,2.905-0.709,5.812-1.084,8.714c-1.682,13.021-3.945,26.369-10.443,37.969c-2.829,5.05-6.242,9.839-10.45,13.837
				c-3.542,3.365-7.778,6.31-12.595,7.344c-3.428,1.83-7.163,3.031-11.037,3.156c-3.362,0.108-6.617-0.734-9.525-2.417
				c-0.713-0.413-1.4-0.862-2.07-1.336c-5.869,28.19-17.549,72.561-17.221,72.646c28.333,7.366,60.269,10.017,88.602,17.383
				c4.371,1.136,8.758,2.281,13.236,2.917c0.609,0.087,5.753,0.634,8.903,0.609c0.697-0.005,2.427,0.093,3.963,0.149
				C189.883,395.607,190.798,391.174,191.67,386.732z"/>
			
				<rect x="140.806" y="306.727" transform="matrix(0.9784 0.2067 -0.2067 0.9784 68.3245 -27.6007)" style="fill:#FFFFFF;" width="50.868" height="12.851"/>
			<path style="fill:#ECB061;" d="M222.811,543.533c-0.286,0-0.572,0-0.858,0"/>
			<path style="fill:#F0806C;" d="M279.992,327.767c0.162-0.237,0.409-0.32,0.91-0.586c1.763-0.936,3.481-1.802,5.327-2.54
				c3.137-1.264,6.252-2.583,9.343-3.957c0.989-0.439,1.222-1.881,0.719-2.741c-0.596-1.019-1.748-1.16-2.741-0.719
				c-4.586,2.038-9.233,3.932-13.923,5.714c0.001-0.236,0.011-0.472,0.009-0.708c-0.004-0.439-0.019-0.884-0.054-1.327
				c5.083-1.927,10.143-3.915,15.175-5.97c1.001-0.409,1.71-1.332,1.399-2.464c-0.261-0.948-1.457-1.811-2.464-1.399
				c-5.159,2.107-10.346,4.145-15.559,6.117c-0.258-0.258-0.536-0.494-0.846-0.69c4.542-2.038,9.31-3.636,14.032-5.083
				c2.458-0.753,1.41-4.622-1.065-3.863c-5.32,1.631-10.607,3.432-15.652,5.797c-2.557,1.198-5.049,2.54-7.424,4.07
				c-2.224,1.434-4.269,3.471-6.69,4.548c-1.197,0.533-2.486,0.828-3.707,1.306c-1.22,0.478-2.415,1.182-3.108,2.295
				c-1.251,2.01-1.745,2.807-3.945,3.916c-8.596,4.333-18.994,4.558-28.307,6.279c-9.089,1.68-18.242,2.766-27.4,3.842
				c-4.547,0.535-9.089,1.104-13.628,1.722c-3.977,0.542-7.077-1.863-10.715-3.753c-1.484-0.771-2.992-1.55-4.607-1.834
				c-4.374-0.768-8.556,2.192-11.91,5.438c-4.459,4.315-8.611,10.389-7.604,16.902c0.368,2.384,1.413,4.576,2.665,6.544
				c3.994,6.277,11.198,13.945,17.938,16.016c3.724,1.144,7.677,0.676,11.497,0.049c2.459-0.403,4.875-0.895,7.258-1.46
				c12.671-3.006,24.403-8.082,36.729-12.832c5.099-2.914,11.36-4.565,16.737-7.006c5.568-2.528,10.843-5.787,16.279-8.544
				c5.274-2.675,11.136-5.052,15.925-8.548c4.124-3.01,7.43-5.869,12.056-8.28c4.079-2.126,8.507-4.017,11.549-7.599
				c0.288-0.339,0.568-0.699,0.709-1.121c0.141-0.422,0.12-0.922-0.156-1.271c-0.229-0.289-0.599-0.435-0.964-0.49
				c-1.045-0.156-2.081,0.339-2.938,0.956c-1.737,1.252-3.598,2.284-5.374,3.468c-1.681,1.121-3.522,1.508-5.476,2.064
				c0.085-0.024-0.241-1.579-0.2-1.744C279.851,328.043,279.911,327.886,279.992,327.767z"/>
			<path style="fill:#F0806C;" d="M118.845,320.447c-0.803-2.117,1.937-1.035,2.27-3.274c0.306-2.056,1.499-3.863,2.764-5.511
				c5.814-7.575,13.873-13.404,22.887-16.555c1.788-0.625,3.895-1.112,5.475-0.067c0.669,0.442,0.173-8.45,0.637-7.796
				c10.655,15.016,20.867,40.6,28.517,57.348c4.231,9.263,6.978,18.99,1.8,28.453c-1.02,1.864-2.289,3.639-4.003,4.893
				c-4.758,3.481-17.115,2.658-21.333-1.46C140.428,359.461,126.579,340.821,118.845,320.447z"/>
			<path style="fill:#44204D;" d="M100.637,295.296c2.788,5.474,6.044,10.693,9.295,15.905c3.982,6.383,7.965,12.767,11.947,19.15
				c15.591-7.229,30.988-14.961,45.023-24.836c-2.848-7.227-16.028-43.891-22.436-54.567c-3.748-6.244-8.164,1.257-11.937-4.971
				c-0.72-0.462-1.486-0.841-2.317-1.075c-2.576-0.726-5.347-0.022-7.8,1.048c-15.637,7.922-18.496,24.122-22.637,39.664
				c-0.464,1.739-0.931,3.53-0.715,5.317C99.245,292.475,99.931,293.91,100.637,295.296z"/>
			<path style="fill:#F0806C;" d="M226.398,206.308c-0.819-0.441-1.641-0.895-2.348-1.496c-2.341-1.99-3.776-4.169-6.777-5.494
				c-4.754-2.1-10.227-1.935-15.103-0.344c-4.876,1.591-7.64,6.911-10.67,10.849c-6.85,8.9-13.378,18.047-19.568,27.417
				c-1.149,1.739-4.467,3.878-4.845,5.947c-0.064,0.351-0.001,0.712,0.072,1.062c0.792,3.741,2.885,7.145,5.649,9.788
				c2.764,2.643,6.176,4.551,9.773,5.847c2.627,0.946,5.429,1.583,8.204,1.276c1.81-0.2,3.614-0.837,5.075-1.938
				c1.452-1.093,1.638-2.114,2.246-3.688c1.58-4.087,3.74-8.039,5.589-12.013c4.949,2.115,10.916,0.169,14.851-3.501
				c3.936-3.67,6.208-8.761,8.044-13.819c1.386-3.817,2.583-7.704,3.585-11.639c0.327-1.283,0.634-2.621,0.374-3.919
				C230.067,208.231,228.239,207.3,226.398,206.308z"/>
			<path d="M194.563,215.278c-1.019,1.776-1.825,3.634-4.316,3.915c-0.445,0.05-5.037-6.696-5.445-7.483
				c-1.219-2.353-1.495-5.517-0.488-7.984c2.373-5.818,9.882-11.182,16.396-11.212c5.847-0.027,11.558,1.666,16.839,3.975
				c2.841,1.242,5.682,2.484,8.523,3.727c3.45,1.509,9.62,3.904,11.029,7.8c0.517,1.429,0.229,3.027-0.287,4.456
				c-0.452,1.252-1.091,2.464-2.055,3.382c-2.024,1.924-5.193,2.222-7.869,1.422c-2.676-0.799-4.966-2.525-7.138-4.281
				c-1.644-1.329-3.494-2.774-5.602-2.612c-2.021,0.155-3.623,1.751-5.545,2.395c-2.377,0.796-4.954,0.068-7.45-0.167
				c-2.031-0.192-4.961,0.076-6.184,1.99C194.828,214.823,194.694,215.05,194.563,215.278z"/>
			<path style="fill:#3A6A6B;" d="M195.522,207.788c0.186-0.073,0.37-0.135,0.555-0.202c0.8-0.463,1.579-0.921,2.326-1.25
				c2.952-1.297,6.385-1.055,9.521-1.464c1.248-0.163,2.675-0.198,3.853-0.678c0.217-0.088,0.409-0.205,0.591-0.333
				c0.781-0.668,1.412-1.509,1.696-2.485c0.124-0.425,1.386-3.888,1.983-5.087c0.045-0.153,0.091-0.306,0.135-0.459
				c-4.796-1.784-9.742-3.163-14.77-4.116c-2.431-0.461-4.829-1.113-7.296-1.365c-1.661-0.169-3.054,0.089-4.488,0.364
				c-0.879,0.169-1.774,0.344-2.755,0.431c-0.462,0.041-0.953,0.059-1.34,0.316c-0.273,0.181-0.463,0.462-0.64,0.738
				c-2.682,4.182-4.562,9.446-3.58,14.477c0.096,0.493,0.241,1.007,0.607,1.352c1.541,1.449,7.642,0.871,9.659,0.777
				C192.981,208.738,194.23,208.296,195.522,207.788z"/>
			<path style="fill:#FF7354;" d="M238.752,194.441c-0.206-0.852-0.355-1.742-0.561-2.473c-0.435-1.54-0.869-3.08-1.304-4.62
				c-0.34-1.207-0.682-2.415-1.124-3.589c-0.524-1.392-1.19-2.73-1.983-3.988c-4.408-6.99-12.8-11.169-20.846-12.165
				c-1.821-0.225-3.662-0.295-5.494-0.202c-8.557,0.434-18.942,5.41-22.154,13.614c-1.581,4.038-1.505,8.519-2.752,12.668
				c-0.264,0.88-7.095,4.4-3.947,6.151c0.741-0.046,1.482-0.096,2.223-0.139c3.417-0.197,6.845,0.153,10.267,0.153
				c0.439,0.012,0.898,0.02,1.293-0.173c0.34-0.166,0.595-0.462,0.84-0.75c0.56-0.659,1.121-1.318,1.681-1.977
				c0.111-0.131,0.232-0.268,0.396-0.321c0.12-0.039,0.25-0.027,0.376-0.016c4.448,0.424,8.872,1.09,13.247,1.995
				c0.985,0.204,2.52,0.257,3.392,0.751c0.444,0.252,0.494,0.593,0.732,1.072c0.575,1.157,1.429,2.417,2.704,2.862
				c7.813,2.724,16.65,5.218,24.899,6.22c1.936,0.235,3.956,0.371,5.783-0.31c2.761-1.029,4.311-3.601,3.15-6.447
				c-0.648-1.589-1.568-2.509-3.083-3.242c-1.278-0.618-2.581-1.184-3.905-1.696c-0.93-0.36-2.613-0.558-3.139-1.468
				C239.13,195.814,238.921,195.141,238.752,194.441z"/>
			<path d="M138.894,468.144c5.57-12.455,10.665-25.139,15.541-37.859l-6.226,4.15c-5.449,9.332-8.568,15.54-12.931,23.248
				C136.477,461.173,137.692,464.656,138.894,468.144z"/>
			<path style="fill:none;stroke:#000000;stroke-miterlimit:10;" d="M207.377,233.208c2.732,0.528,5.536,0.687,8.311,0.471"/>
			<g>
				<defs>
					<path id="SVGID_00000036974503801261075080000015928047743645168817_" d="M226.398,206.308
						c-0.819-0.441-1.641-0.895-2.348-1.496c-2.341-1.99-3.776-4.169-6.777-5.494c-4.754-2.1-10.227-1.935-15.103-0.344
						c-4.876,1.591-7.64,6.911-10.67,10.849c-6.85,8.9-13.378,18.047-19.568,27.417c-1.528,2.312-5.81,5.743-6.18,8.488
						c-0.371,2.752,4.68,5.787,7.025,7.389c6.215,4.245,13.547,6.868,21.058,7.422c0.531,0.039,1.092,0.063,1.566-0.182
						c0.585-0.302,0.9-0.94,1.178-1.537c2.372-5.1,4.745-10.2,7.117-15.3c4.949,2.115,10.916,0.169,14.851-3.501
						c3.936-3.67,6.208-8.761,8.044-13.819c1.386-3.817,2.583-7.704,3.585-11.639c0.327-1.283,0.634-2.621,0.374-3.919
						C230.067,208.231,228.239,207.3,226.398,206.308z"/>
				</defs>
				<clipPath id="SVGID_00000137849380344745917640000018278194934063550639_">
					<use xlink:href="#SVGID_00000036974503801261075080000015928047743645168817_"  style="overflow:visible;"/>
				</clipPath>
				<path style="clip-path:url(#SVGID_00000137849380344745917640000018278194934063550639_);" d="M208.206,245.681
					c-4.161-0.705-6.595-5.153-10.412-6.955c1.144,5.117,3.926,9.855,7.838,13.347"/>
			</g>
			<path style="fill:none;stroke:#000000;stroke-miterlimit:10;" d="M160.673,373.612c1.114,2.569,4.803,3.571,7.063,1.918"/>
			<path style="fill:none;stroke:#000000;stroke-miterlimit:10;" d="M180.172,341.544c-0.821,1.173-1.479,2.461-1.95,3.814"/>
			<path style="fill:#F0806C;" d="M190.383,211.7c-0.727-0.708-1.574-1.376-2.628-1.673c-0.886-0.25-1.849-0.218-2.773-0.105
				c-1.17,0.142-2.338,0.416-3.325,0.965c-1.446,0.804-2.389,2.15-2.791,3.57c-0.402,1.419-0.302,2.91,0.012,4.345
				c0.401,1.832,1.183,3.659,2.674,5.035c1.492,1.376,3.789,2.225,5.952,1.835c2.255-0.407,3.958-2.065,4.754-3.889
				C193.818,218.209,193.361,214.603,190.383,211.7z"/>
			<path style="fill:none;stroke:#000000;stroke-miterlimit:10;" d="M184.98,212.689c1.241-0.323,2.344,0.868,2.919,2.014
				c1.008,2.01,1.431,4.309,1.204,6.546"/>
			<path style="fill:none;stroke:#000000;stroke-miterlimit:10;" d="M201.757,170.399c-1.496,0.785-2.733,2.054-3.48,3.569"/>
			<path style="fill:none;stroke:#000000;stroke-miterlimit:10;" d="M208.484,170.731c-1.363,1.095-2.555,2.401-3.522,3.857"/>
			<path style="fill:none;stroke:#000000;stroke-miterlimit:10;" d="M213.854,171.179c-1.13,1.065-1.894,2.51-2.139,4.043"/>
			
				<line style="fill:none;stroke:#000000;stroke-width:2;stroke-miterlimit:10;" x1="188.475" y1="455.751" x2="188.475" y2="549.136"/>
			
				<line style="fill:none;stroke:#000000;stroke-width:2;stroke-miterlimit:10;" x1="199.921" y1="455.751" x2="199.921" y2="549.136"/>
			
				<line style="fill:none;stroke:#000000;stroke-width:2;stroke-miterlimit:10;" x1="509.366" y1="455.751" x2="509.366" y2="549.136"/>
			
				<line style="fill:none;stroke:#000000;stroke-width:2;stroke-miterlimit:10;" x1="520.811" y1="455.751" x2="520.811" y2="549.136"/>
			<rect x="163.146" y="448.773" width="384.518" height="6.861"/>
			<path style="fill:none;stroke:#000000;stroke-width:0.5;stroke-miterlimit:10;" d="M100.213,413.514
				c5.837,2.541,12.739,2.513,18.555-0.074c5.816-2.588,10.458-7.696,12.479-13.732"/>
			<path style="fill:none;stroke:#000000;stroke-miterlimit:10;" d="M183.276,194.144c0.691,0.173,9.842,1.036,9.842,1.036
				l0.679-1.223c0.634-1.141,1.893-1.789,3.19-1.641l15.879,1.811c1.042,0.119,1.962,0.736,2.466,1.656l0.988,1.8
				c0.615,1.121,1.672,1.935,2.911,2.249c8.828,2.237,16.778,3.041,20.677-2.753"/>
			<path style="fill:none;stroke:#000000;stroke-width:0.5;stroke-miterlimit:10;" d="M146.24,445.021
				c5.888,29.119,11.579,51.111,17.467,80.23"/>
			<path style="fill:none;stroke:#000000;stroke-miterlimit:10;" d="M109.955,309.784c-2.898-4.023-5.462-8.288-7.656-12.734"/>
		</g>
	</g>
</g>
</svg>
