<?xml version="1.0" encoding="utf-8"?>
<!-- Generator: Adobe Illustrator 27.5.0, SVG Export Plug-In . SVG Version: 6.00 Build 0)  -->
<svg version="1.1" xmlns="http://www.w3.org/2000/svg" xmlns:xlink="http://www.w3.org/1999/xlink" x="0px" y="0px"
	 viewBox="0 0 500 500" style="enable-background:new 0 0 500 500;" xml:space="preserve">
<g id="Floor">
	<ellipse style="fill:#F5F5F5;" cx="250" cy="344.937" rx="226.35" ry="133.354"/>
</g>
<g id="Shadows">
	<polygon style="fill:#E0E0E0;" points="370.173,274.705 180.595,384.158 95.668,335.081 285.245,225.628 	"/>
	<g>
		<path style="fill:#E0E0E0;" d="M409.164,380.208l-50.556,29.148c-3.37,1.943-7.521,1.942-10.89-0.003l-71.308-41.169l62.62-36.104
			l70.135,40.493C412.106,374.269,412.105,378.513,409.164,380.208z"/>
		<ellipse style="fill:#E0E0E0;" cx="291.685" cy="341.916" rx="50.315" ry="29.049"/>
	</g>
	<ellipse style="fill:#E0E0E0;" cx="189.886" cy="424.203" rx="15.573" ry="9.175"/>
	<ellipse style="fill:#E0E0E0;" cx="111.906" cy="389.953" rx="43.713" ry="25.754"/>
</g>
<g id="Table">
	<g>
		<g>
			<polygon style="fill:#BA68C8;" points="360.009,177.549 180.911,280.952 107.129,238.009 286.227,134.607 			"/>
			<polygon style="opacity:0.3;fill:#FFFFFF;" points="360.009,177.549 180.911,280.952 107.129,238.009 286.227,134.607 			"/>
			<polygon style="fill:#BA68C8;" points="349.595,177.532 180.927,274.915 132.742,246.873 128.187,244.219 117.541,238.024 
				128.187,231.881 132.742,229.248 286.219,140.641 			"/>
			<polygon style="opacity:0.2;" points="129.747,245.129 180.922,274.914 337.391,184.576 286.216,154.791 			"/>
			<g>
				<polygon style="fill:#BA68C8;" points="360.009,177.549 355.067,180.403 355.067,278.719 360.009,275.865 				"/>
				<polygon style="opacity:0.3;fill:#FFFFFF;" points="360.009,177.549 355.067,180.403 355.067,278.719 360.009,275.865 				"/>
				<polygon style="fill:#BA68C8;" points="350.124,177.549 355.067,180.403 355.067,278.719 350.124,275.865 				"/>
			</g>
			<g>
				<polygon style="fill:#BA68C8;" points="186.088,277.963 181.145,280.817 181.145,379.132 186.088,376.279 				"/>
				<polygon style="opacity:0.3;fill:#FFFFFF;" points="186.088,277.963 181.145,280.817 181.145,379.132 186.088,376.279 				"/>
				<polygon style="fill:#BA68C8;" points="176.203,277.963 181.145,280.817 181.145,379.132 176.203,376.279 				"/>
			</g>
			<g>
				<polygon style="fill:#BA68C8;" points="117.014,238.009 112.071,240.863 112.071,339.178 117.014,336.324 				"/>
				<polygon style="opacity:0.3;fill:#FFFFFF;" points="117.014,238.009 112.071,240.863 112.071,339.178 117.014,336.324 				"/>
				<polygon style="fill:#BA68C8;" points="107.129,238.009 112.071,240.863 112.071,339.178 107.129,336.324 				"/>
			</g>
			<g>
				<polygon style="fill:#BA68C8;" points="355.067,202.174 186.088,299.734 186.088,277.963 355.067,180.403 				"/>
				<polygon style="opacity:0.3;fill:#FFFFFF;" points="355.067,202.174 186.088,299.734 186.088,277.963 355.067,180.403 				"/>
			</g>
			<polygon style="fill:#BA68C8;" points="107,238.009 107,259.78 181.145,302.588 181.145,280.817 			"/>
			<path style="fill:#37474F;" d="M132.742,187.123v59.75l-4.555-2.654v-57.097c0-1.264,1.013-2.278,2.278-2.278
				c0.627,0,1.191,0.251,1.609,0.669C132.492,185.921,132.742,186.496,132.742,187.123z"/>
		</g>
		<polygon style="fill:#263238;" points="179.724,118.605 179.724,126.021 188.16,129.438 		"/>
		<g>
			<g>
				<polygon style="fill:#BA68C8;" points="107.086,165.927 181.145,280.817 360.009,177.549 285.95,62.659 				"/>
				<polygon style="opacity:0.7;fill:#FFFFFF;" points="107.086,165.927 181.145,280.817 360.009,177.549 285.95,62.659 				"/>
			</g>
			<polygon style="fill:#BA68C8;" points="107.086,169.953 176.932,278.385 181.145,280.817 107.086,165.927 			"/>
			<polygon style="opacity:0.5;fill:#FFFFFF;" points="107.086,169.953 176.932,278.385 181.145,280.817 107.086,165.927 			"/>
		</g>
		<g>
			<polygon style="fill:#455A64;" points="134.865,167.021 195.708,261.408 342.653,176.569 281.81,82.182 			"/>
			
				<rect x="128.791" y="162.644" transform="matrix(0.248 -0.9688 0.9688 0.248 -57.4999 257.7765)" style="fill:#FFFFFF;" width="17.01" height="6.566"/>
			
				<rect x="273.411" y="80.083" transform="matrix(0.9772 0.2123 -0.2123 0.9772 24.1179 -57.9373)" style="fill:#FFFFFF;" width="17.01" height="6.566"/>
			<g>
				<path style="fill:#263238;" d="M200.736,243.455l-46.771-72.412l122.817-70.908l46.771,72.412L200.736,243.455z
					 M155.375,171.384l45.686,70.729l121.082-69.907l-45.686-70.729L155.375,171.384z"/>
				<g>
					<polygon style="fill:#263238;" points="206.572,239.674 160.344,168.104 160.555,167.968 206.783,239.539 					"/>
					<polygon style="fill:#263238;" points="213.472,235.671 167.243,164.1 167.454,163.964 213.683,235.535 					"/>
					<polygon style="fill:#263238;" points="220.371,231.667 174.143,160.097 174.354,159.961 220.582,231.532 					"/>
					<polygon style="fill:#263238;" points="227.27,227.665 181.042,156.094 181.253,155.958 227.481,227.529 					"/>
					<polygon style="fill:#263238;" points="234.17,223.661 187.941,152.09 188.152,151.955 234.381,223.525 					"/>
					<polygon style="fill:#263238;" points="241.069,219.658 194.841,148.087 195.052,147.952 241.28,219.522 					"/>
					<polygon style="fill:#263238;" points="247.969,215.655 201.74,144.084 201.951,143.948 248.18,215.519 					"/>
					<polygon style="fill:#263238;" points="254.868,211.651 208.64,140.081 208.851,139.945 255.079,211.516 					"/>
					<polygon style="fill:#263238;" points="261.768,207.648 215.539,136.078 215.75,135.942 261.978,207.512 					"/>
					<polygon style="fill:#263238;" points="268.667,203.645 222.439,132.074 222.649,131.939 268.878,203.509 					"/>
					<polygon style="fill:#263238;" points="275.566,199.642 229.338,128.071 229.549,127.935 275.777,199.506 					"/>
					<polygon style="fill:#263238;" points="282.466,195.638 236.238,124.068 236.449,123.932 282.677,195.502 					"/>
					<polygon style="fill:#263238;" points="289.366,191.635 243.138,120.064 243.349,119.929 289.577,191.499 					"/>
					<polygon style="fill:#263238;" points="296.266,187.632 250.037,116.062 250.248,115.926 296.477,187.496 					"/>
					<polygon style="fill:#263238;" points="303.165,183.628 256.936,112.058 257.147,111.922 303.376,183.493 					"/>
					<polygon style="fill:#263238;" points="310.065,179.626 263.836,108.055 264.047,107.919 310.275,179.49 					"/>
					<polygon style="fill:#263238;" points="316.964,175.622 270.735,104.052 270.946,103.916 317.175,175.486 					"/>
				</g>
				<g>
					
						<rect x="148.74" y="141.226" transform="matrix(0.8663 -0.4995 0.4995 0.8663 -41.308 128.3587)" style="fill:#263238;" width="140.816" height="0.25"/>
					
						<rect x="152.332" y="146.805" transform="matrix(0.8663 -0.4995 0.4995 0.8663 -43.6141 130.8982)" style="fill:#263238;" width="140.815" height="0.25"/>
					
						<rect x="155.924" y="152.383" transform="matrix(0.8663 -0.4995 0.4995 0.8663 -45.9201 133.438)" style="fill:#263238;" width="140.815" height="0.25"/>
					
						<rect x="159.515" y="157.961" transform="matrix(0.8662 -0.4997 0.4997 0.8662 -48.2306 136.0333)" style="fill:#263238;" width="140.815" height="0.25"/>
					
						<rect x="163.107" y="163.539" transform="matrix(0.8663 -0.4995 0.4995 0.8663 -50.5324 138.5175)" style="fill:#263238;" width="140.815" height="0.25"/>
					
						<rect x="166.699" y="169.117" transform="matrix(0.8663 -0.4995 0.4995 0.8663 -52.8385 141.0573)" style="fill:#263238;" width="140.815" height="0.25"/>
					
						<rect x="170.291" y="174.695" transform="matrix(0.8663 -0.4995 0.4995 0.8663 -55.1446 143.5971)" style="fill:#263238;" width="140.815" height="0.25"/>
					
						<rect x="173.883" y="180.274" transform="matrix(0.8663 -0.4995 0.4995 0.8663 -57.4507 146.1368)" style="fill:#263238;" width="140.815" height="0.25"/>
					
						<rect x="177.474" y="185.852" transform="matrix(0.8663 -0.4995 0.4995 0.8663 -59.7568 148.6766)" style="fill:#263238;" width="140.815" height="0.25"/>
					
						<rect x="181.066" y="191.43" transform="matrix(0.8663 -0.4995 0.4995 0.8663 -62.0629 151.2164)" style="fill:#263238;" width="140.815" height="0.25"/>
					
						<rect x="184.658" y="197.008" transform="matrix(0.8663 -0.4995 0.4995 0.8663 -64.3691 153.7562)" style="fill:#263238;" width="140.815" height="0.25"/>
					
						<rect x="188.25" y="202.587" transform="matrix(0.8663 -0.4995 0.4995 0.8663 -66.6752 156.2959)" style="fill:#263238;" width="140.815" height="0.25"/>
				</g>
			</g>
			<path style="fill:#E0E0E0;" d="M206.678,225.445c-0.123,0-0.243-0.061-0.314-0.171l-21.44-33.122l-6.496,3.751
				c-0.144,0.083-0.325,0.063-0.445-0.053c-0.121-0.114-0.151-0.294-0.076-0.442l16.707-32.8c0.064-0.128,0.193-0.212,0.344-0.205
				l38.354,1.011c0.17,0.004,0.314,0.122,0.354,0.287c0.04,0.165-0.035,0.335-0.185,0.417l-6.442,3.526l21.353,33.324
				c0.056,0.086,0.073,0.191,0.049,0.291c-0.024,0.099-0.088,0.185-0.177,0.236l-41.396,23.9
				C206.807,225.429,206.742,225.445,206.678,225.445z M185.044,191.274c0.123,0,0.243,0.061,0.314,0.171l21.44,33.122
				l40.748-23.526l-21.357-33.331c-0.057-0.087-0.073-0.194-0.048-0.295c0.025-0.1,0.092-0.186,0.184-0.236l5.575-3.052
				l-36.728-0.968l-16.025,31.462l5.709-3.296C184.915,191.29,184.98,191.274,185.044,191.274z"/>
			<path style="fill:#E0E0E0;" d="M248.074,201.545c-0.129,0-0.255-0.067-0.325-0.188c-0.104-0.179-0.042-0.409,0.138-0.512
				l54.865-31.677l-6.632-11.018l-49.195-17.099l-38.193,22.051c-0.177,0.102-0.408,0.043-0.513-0.137
				c-0.104-0.179-0.042-0.409,0.138-0.512l38.342-22.137c0.093-0.055,0.205-0.067,0.311-0.029l49.485,17.2
				c0.083,0.029,0.153,0.085,0.198,0.161l6.899,11.461c0.052,0.086,0.067,0.189,0.042,0.287c-0.025,0.098-0.089,0.181-0.176,0.231
				l-55.196,31.868C248.203,201.529,248.138,201.545,248.074,201.545z"/>
			<path style="fill:#E0E0E0;" d="M296.371,158.216c-0.124,0-0.245-0.062-0.316-0.174l-21.042-33.171l-13.535,7.815l10.277,16.289
				c0.11,0.175,0.058,0.407-0.117,0.518c-0.176,0.109-0.408,0.058-0.518-0.117l-10.485-16.62c-0.055-0.087-0.071-0.191-0.047-0.29
				c0.024-0.099,0.089-0.184,0.177-0.235l14.185-8.189c0.172-0.101,0.397-0.046,0.504,0.124l21.234,33.475
				c0.111,0.175,0.06,0.406-0.115,0.518C296.51,158.197,296.44,158.216,296.371,158.216z"/>
			<path style="fill:#E0E0E0;" d="M234.275,178.904c-0.129,0-0.255-0.067-0.325-0.188c-0.104-0.179-0.042-0.409,0.138-0.512
				l45.702-26.386c0.179-0.104,0.408-0.041,0.513,0.137c0.104,0.179,0.042,0.409-0.138,0.512l-45.702,26.386
				C234.404,178.888,234.34,178.904,234.275,178.904z"/>
			<path style="fill:#E0E0E0;" d="M235.876,182.508c-0.129,0-0.255-0.067-0.324-0.187c-0.105-0.179-0.043-0.409,0.136-0.513
				l45.164-26.264c0.092-0.054,0.204-0.065,0.306-0.032l12.031,3.942c0.082,0.027,0.153,0.082,0.199,0.156l7.141,11.256
				c0.111,0.175,0.06,0.406-0.115,0.518c-0.175,0.108-0.407,0.059-0.518-0.116l-7.068-11.142l-11.744-3.848l-45.019,26.179
				C236.005,182.492,235.94,182.508,235.876,182.508z"/>
			<path style="fill:#E0E0E0;" d="M237.843,184.762c-0.129,0-0.254-0.066-0.324-0.186c-0.105-0.179-0.044-0.409,0.136-0.513
				l46.856-27.318c0.175-0.105,0.406-0.045,0.513,0.135c0.104,0.179,0.044,0.409-0.136,0.513l-46.856,27.318
				C237.973,184.746,237.907,184.762,237.843,184.762z"/>
			<path style="fill:#E0E0E0;" d="M240.916,190.374c-0.129,0-0.255-0.067-0.324-0.187c-0.104-0.179-0.043-0.409,0.137-0.513
				l52.155-30.186c0.175-0.104,0.407-0.044,0.512,0.137c0.104,0.179,0.043,0.409-0.137,0.513l-52.155,30.186
				C241.045,190.357,240.98,190.374,240.916,190.374z"/>
			<path style="fill:#E0E0E0;" d="M239.543,187.592c-0.128,0-0.253-0.066-0.323-0.185c-0.104-0.178-0.046-0.408,0.133-0.513
				l48.959-28.902c0.177-0.105,0.407-0.047,0.514,0.132c0.104,0.178,0.046,0.408-0.133,0.513l-48.959,28.902
				C239.674,187.575,239.608,187.592,239.543,187.592z"/>
			<g>
				<path style="fill:#E0E0E0;" d="M202.637,189.628c-0.123,0-0.243-0.061-0.315-0.171l-2.71-4.195
					c-1.251-1.938-1.643-4.241-1.101-6.484c0.541-2.243,1.939-4.114,3.938-5.268c3.857-2.226,8.766-1.04,11.18,2.698l3.088,4.78
					c0.055,0.086,0.073,0.191,0.05,0.29c-0.024,0.1-0.088,0.185-0.176,0.237l-13.764,8.062
					C202.767,189.611,202.701,189.628,202.637,189.628z M206.616,173.139c-1.29,0-2.598,0.33-3.793,1.02
					c-1.818,1.05-3.091,2.752-3.584,4.794c-0.492,2.041-0.137,4.137,1.003,5.901l2.515,3.894l13.116-7.683l-2.876-4.451
					C211.549,174.372,209.113,173.139,206.616,173.139z"/>
				<path style="fill:#E0E0E0;" d="M209.519,185.597c-0.123,0-0.243-0.061-0.316-0.171l-7.221-11.179
					c-0.112-0.174-0.062-0.406,0.112-0.519c0.173-0.111,0.405-0.063,0.519,0.111l7.221,11.179c0.112,0.174,0.061,0.406-0.112,0.518
					C209.659,185.578,209.589,185.597,209.519,185.597z"/>
				<path style="fill:#E0E0E0;" d="M199.146,183.876c-0.129,0-0.255-0.067-0.325-0.188c-0.104-0.179-0.042-0.409,0.138-0.512
					l13.602-7.853c0.178-0.103,0.408-0.042,0.513,0.137c0.104,0.179,0.042,0.409-0.138,0.512l-13.602,7.853
					C199.275,183.859,199.21,183.876,199.146,183.876z"/>
			</g>
			<g>
				<path style="fill:#E0E0E0;" d="M244.072,165.711c-0.123,0-0.243-0.061-0.315-0.171l-2.71-4.195
					c-1.251-1.938-1.643-4.241-1.101-6.484c0.541-2.243,1.939-4.114,3.938-5.268c3.855-2.226,8.766-1.04,11.18,2.698l3.088,4.78
					c0.055,0.086,0.073,0.191,0.05,0.29c-0.024,0.1-0.088,0.185-0.176,0.237l-13.764,8.062
					C244.202,165.694,244.137,165.711,244.072,165.711z M248.052,149.223c-1.29,0-2.598,0.329-3.793,1.02
					c-1.818,1.05-3.091,2.752-3.584,4.794c-0.492,2.042-0.137,4.137,1.003,5.901l2.515,3.894l13.116-7.682l-2.876-4.451
					C252.984,150.456,250.549,149.223,248.052,149.223z"/>
				<path style="fill:#E0E0E0;" d="M250.954,161.68c-0.123,0-0.243-0.061-0.315-0.171l-7.221-11.179
					c-0.112-0.174-0.062-0.406,0.112-0.519c0.173-0.11,0.405-0.063,0.518,0.111l7.221,11.179c0.112,0.174,0.062,0.406-0.112,0.519
					C251.095,161.661,251.024,161.68,250.954,161.68z"/>
				<path style="fill:#E0E0E0;" d="M240.582,159.959c-0.129,0-0.255-0.067-0.325-0.188c-0.104-0.179-0.042-0.409,0.138-0.512
					l13.603-7.853c0.179-0.102,0.408-0.042,0.513,0.137c0.104,0.179,0.042,0.409-0.138,0.512l-13.603,7.854
					C240.711,159.943,240.645,159.959,240.582,159.959z"/>
			</g>
			<g>
				<path style="fill:#E0E0E0;" d="M271.014,142.231c-0.123,0-0.243-0.061-0.315-0.171l-1.523-2.359
					c-0.729-1.128-0.956-2.468-0.641-3.773c0.314-1.306,1.129-2.395,2.292-3.066c2.243-1.296,5.101-0.605,6.507,1.57l1.736,2.688
					c0.055,0.086,0.073,0.191,0.05,0.291c-0.024,0.1-0.088,0.185-0.176,0.237l-7.74,4.533
					C271.144,142.214,271.078,142.231,271.014,142.231z M273.253,132.959c-0.698,0-1.405,0.178-2.052,0.551
					c-0.983,0.568-1.672,1.489-1.939,2.593c-0.267,1.104-0.073,2.236,0.543,3.19l1.328,2.058l7.093-4.154l-1.525-2.359
					C275.92,133.626,274.603,132.959,273.253,132.959z"/>
				<path style="fill:#E0E0E0;" d="M274.884,139.964c-0.123,0-0.243-0.061-0.315-0.171l-4.061-6.286
					c-0.112-0.174-0.063-0.406,0.112-0.519c0.173-0.111,0.405-0.063,0.519,0.111l4.06,6.286c0.112,0.174,0.063,0.406-0.112,0.519
					C275.024,139.945,274.954,139.964,274.884,139.964z"/>
				<path style="fill:#E0E0E0;" d="M269.052,138.997c-0.129,0-0.255-0.067-0.325-0.188c-0.104-0.179-0.042-0.409,0.138-0.512
					l7.648-4.416c0.178-0.104,0.408-0.042,0.513,0.137c0.104,0.179,0.042,0.409-0.138,0.512l-7.648,4.416
					C269.181,138.98,269.115,138.997,269.052,138.997z"/>
			</g>
			<path style="fill:#E0E0E0;" d="M220.477,217.29c-0.123,0-0.243-0.061-0.315-0.171l-9.767-15.121
				c-1.252-1.939-1.643-4.241-1.102-6.484c0.541-2.243,1.94-4.114,3.938-5.268c3.852-2.226,8.764-1.041,11.18,2.698l10.18,15.76
				c0.112,0.174,0.061,0.406-0.112,0.518c-0.171,0.113-0.404,0.064-0.518-0.111l-10.18-15.76c-2.197-3.402-6.667-4.481-10.174-2.456
				c-1.819,1.05-3.092,2.753-3.585,4.794c-0.492,2.042-0.136,4.137,1.004,5.901l9.767,15.121c0.112,0.174,0.061,0.406-0.112,0.519
				C220.617,217.27,220.547,217.29,220.477,217.29z"/>
			<path style="fill:#E0E0E0;" d="M211.653,222.572c-0.123,0-0.244-0.061-0.316-0.173l-13.673-21.411
				c-0.218-0.342-0.284-0.747-0.187-1.141c0.099-0.394,0.347-0.721,0.7-0.921c0.673-0.379,1.53-0.17,1.951,0.48l13.764,21.309
				c0.112,0.174,0.062,0.406-0.112,0.518c-0.172,0.113-0.405,0.064-0.519-0.111l-13.764-21.309c-0.204-0.316-0.621-0.42-0.951-0.234
				c-0.172,0.097-0.293,0.257-0.341,0.45c-0.048,0.192-0.016,0.39,0.091,0.557l13.673,21.411c0.111,0.174,0.06,0.406-0.114,0.518
				C211.793,222.553,211.723,222.572,211.653,222.572z"/>
			<path style="fill:#E0E0E0;" d="M215.617,220.298c-0.123,0-0.244-0.061-0.316-0.173l-13.673-21.411
				c-0.218-0.342-0.284-0.748-0.186-1.142c0.099-0.394,0.348-0.721,0.701-0.921c0.673-0.382,1.529-0.169,1.95,0.481l13.764,21.308
				c0.112,0.174,0.062,0.406-0.112,0.519c-0.172,0.112-0.405,0.064-0.518-0.111l-13.764-21.309c-0.204-0.317-0.62-0.42-0.95-0.234
				c-0.173,0.097-0.294,0.257-0.342,0.449c-0.048,0.192-0.016,0.39,0.091,0.557l13.673,21.411c0.111,0.174,0.06,0.406-0.114,0.518
				C215.757,220.279,215.686,220.298,215.617,220.298z"/>
			<path style="fill:#E0E0E0;" d="M237.355,207.516c-0.123,0-0.244-0.061-0.316-0.173l-13.673-21.411
				c-0.218-0.342-0.284-0.747-0.186-1.142c0.099-0.394,0.347-0.721,0.7-0.92c0.673-0.383,1.529-0.17,1.95,0.479l13.764,21.309
				c0.112,0.174,0.062,0.406-0.112,0.519c-0.171,0.112-0.404,0.063-0.518-0.111L225.2,184.757c-0.203-0.317-0.621-0.419-0.951-0.234
				c-0.172,0.097-0.293,0.257-0.341,0.449c-0.048,0.192-0.016,0.39,0.091,0.557l13.673,21.411c0.111,0.174,0.059,0.406-0.114,0.518
				C237.495,207.497,237.425,207.516,237.355,207.516z"/>
			<path style="fill:#E0E0E0;" d="M241.319,205.242c-0.123,0-0.244-0.061-0.316-0.173l-13.673-21.411
				c-0.218-0.342-0.284-0.747-0.186-1.141c0.099-0.395,0.348-0.722,0.701-0.921c0.674-0.382,1.53-0.169,1.95,0.48l13.764,21.308
				c0.112,0.174,0.062,0.406-0.112,0.518c-0.172,0.112-0.404,0.064-0.519-0.111l-13.764-21.309c-0.204-0.317-0.62-0.42-0.95-0.234
				c-0.173,0.098-0.294,0.257-0.342,0.45c-0.048,0.192-0.016,0.389,0.091,0.556l13.673,21.411c0.111,0.174,0.06,0.406-0.114,0.518
				C241.459,205.223,241.389,205.242,241.319,205.242z"/>
			<path style="fill:#E0E0E0;" d="M224.621,200.71c-0.818,0-1.484-0.667-1.484-1.485s0.666-1.485,1.484-1.485
				c0.819,0,1.485,0.666,1.485,1.485S225.44,200.71,224.621,200.71z M224.621,198.49c-0.405,0-0.734,0.33-0.734,0.735
				s0.329,0.735,0.734,0.735c0.405,0,0.735-0.33,0.735-0.735S225.026,198.49,224.621,198.49z"/>
			<path style="fill:#E0E0E0;" d="M258.321,134.414c-0.121,0-0.239-0.059-0.311-0.166l-2.078-3.081
				c-0.059-0.086-0.078-0.194-0.055-0.295c0.024-0.102,0.09-0.189,0.181-0.241l19.429-10.961c0.172-0.096,0.384-0.046,0.494,0.115
				l1.973,2.886c0.059,0.086,0.079,0.193,0.056,0.294c-0.022,0.102-0.087,0.189-0.178,0.242l-19.323,11.156
				C258.45,134.398,258.386,134.414,258.321,134.414z M256.781,131.085l1.655,2.455l18.67-10.779l-1.55-2.268L256.781,131.085z"/>
		</g>
		<g>
			<path style="fill:#BA68C8;" d="M214.71,238.041c-4.929-10.353-14.299-15.578-21.101-11.68h0
				c-6.839,3.896-8.687,15.447-4.186,25.937l-7.548,4.198l4.324,9.852l40.451-22.65l-4.58-9.864L214.71,238.041z M195.926,248.377
				c-2.285-5.095-1.421-10.761,1.924-12.657l0,0c3.336-1.896,7.92,0.698,10.245,5.795l0.103,0.226l-12.171,6.863L195.926,248.377z"
				/>
			<path style="opacity:0.3;" d="M214.71,238.041c-4.929-10.353-14.299-15.578-21.101-11.68h0
				c-6.839,3.896-8.687,15.447-4.186,25.937l-7.548,4.198l4.324,9.852l40.451-22.65l-4.58-9.864L214.71,238.041z M195.926,248.377
				c-2.285-5.095-1.421-10.761,1.924-12.657l0,0c3.336-1.896,7.92,0.698,10.245,5.795l0.103,0.226l-12.171,6.863L195.926,248.377z"
				/>
			<g>
				<path style="fill:#FAFAFA;" d="M189.351,264.887c-0.192,0-0.376-0.111-0.458-0.299l-1.076-2.453
					c-0.11-0.253,0.004-0.548,0.257-0.659c0.254-0.108,0.549,0.004,0.659,0.257l1.076,2.453c0.11,0.253-0.004,0.548-0.257,0.659
					C189.486,264.873,189.418,264.887,189.351,264.887z"/>
				<path style="fill:#FAFAFA;" d="M192.42,263.135c-0.192,0-0.376-0.111-0.458-0.299l-1.076-2.452
					c-0.11-0.253,0.004-0.548,0.257-0.659c0.253-0.108,0.549,0.004,0.659,0.257l1.076,2.452c0.11,0.253-0.004,0.548-0.257,0.659
					C192.556,263.121,192.487,263.135,192.42,263.135z"/>
				<path style="fill:#FAFAFA;" d="M195.489,261.383c-0.192,0-0.375-0.111-0.458-0.299l-1.077-2.452
					c-0.11-0.253,0.004-0.548,0.257-0.659c0.253-0.108,0.547,0.004,0.659,0.257l1.077,2.452c0.11,0.253-0.004,0.548-0.257,0.659
					C195.625,261.369,195.557,261.383,195.489,261.383z"/>
				<path style="fill:#FAFAFA;" d="M198.558,259.631c-0.192,0-0.376-0.111-0.458-0.299l-1.076-2.452
					c-0.11-0.253,0.004-0.548,0.257-0.659c0.254-0.109,0.549,0.004,0.659,0.257l1.076,2.452c0.11,0.253-0.004,0.548-0.257,0.659
					C198.693,259.617,198.625,259.631,198.558,259.631z"/>
				<path style="fill:#FAFAFA;" d="M201.627,257.879c-0.192,0-0.376-0.111-0.458-0.299l-1.076-2.452
					c-0.11-0.253,0.004-0.548,0.257-0.659c0.253-0.107,0.549,0.004,0.659,0.257l1.076,2.452c0.11,0.253-0.004,0.548-0.257,0.659
					C201.763,257.865,201.694,257.879,201.627,257.879z"/>
				<path style="fill:#FAFAFA;" d="M204.696,256.127c-0.192,0-0.376-0.111-0.458-0.299l-1.076-2.452
					c-0.11-0.253,0.004-0.548,0.257-0.659c0.253-0.108,0.549,0.004,0.659,0.257l1.076,2.452c0.11,0.253-0.004,0.548-0.257,0.659
					C204.832,256.113,204.764,256.127,204.696,256.127z"/>
				<path style="fill:#FAFAFA;" d="M207.766,254.375c-0.192,0-0.376-0.111-0.458-0.299l-1.076-2.452
					c-0.11-0.253,0.004-0.548,0.257-0.659c0.252-0.109,0.549,0.004,0.659,0.257l1.076,2.452c0.11,0.253-0.004,0.548-0.257,0.659
					C207.901,254.361,207.833,254.375,207.766,254.375z"/>
				<path style="fill:#FAFAFA;" d="M210.835,252.623c-0.192,0-0.376-0.111-0.458-0.299l-1.076-2.452
					c-0.11-0.253,0.004-0.548,0.257-0.659c0.253-0.107,0.549,0.005,0.659,0.257l1.076,2.452c0.11,0.253-0.004,0.548-0.257,0.659
					C210.971,252.609,210.902,252.623,210.835,252.623z"/>
				<path style="fill:#FAFAFA;" d="M213.904,250.872c-0.192,0-0.376-0.112-0.458-0.299l-1.076-2.453
					c-0.11-0.252,0.004-0.547,0.257-0.659c0.254-0.108,0.549,0.004,0.659,0.257l1.076,2.453c0.11,0.252-0.004,0.547-0.257,0.659
					C214.04,250.858,213.972,250.872,213.904,250.872z"/>
				<path style="fill:#FAFAFA;" d="M216.974,249.12c-0.192,0-0.376-0.112-0.458-0.299l-1.076-2.453
					c-0.11-0.253,0.004-0.547,0.257-0.659c0.253-0.108,0.549,0.004,0.659,0.257l1.076,2.453c0.11,0.253-0.004,0.547-0.257,0.659
					C217.109,249.106,217.041,249.12,216.974,249.12z"/>
				<path style="fill:#FAFAFA;" d="M220.043,247.368c-0.192,0-0.376-0.112-0.458-0.299l-1.076-2.453
					c-0.11-0.252,0.004-0.547,0.257-0.659c0.254-0.109,0.549,0.005,0.659,0.257l1.076,2.453c0.11,0.252-0.004,0.547-0.257,0.659
					C220.179,247.354,220.11,247.368,220.043,247.368z"/>
				<path style="fill:#FAFAFA;" d="M223.112,245.616c-0.192,0-0.376-0.112-0.458-0.299l-1.076-2.452
					c-0.11-0.253,0.004-0.548,0.257-0.659c0.253-0.108,0.549,0.004,0.659,0.257l1.076,2.452c0.11,0.253-0.004,0.548-0.257,0.659
					C223.248,245.602,223.18,245.616,223.112,245.616z"/>
			</g>
		</g>
		<g>
			<g>
				<path style="fill:#263238;" d="M193.068,125.966c-1.443,0-2.612-1.169-2.612-2.612V67.846c0-6.499,3.495-12.558,9.121-15.812
					l22.387-12.947c4.99-2.887,11.154-2.822,16.084,0.17l12.104,7.196c1.24,0.737,1.647,2.34,0.91,3.58
					c-0.737,1.24-2.339,1.647-3.58,0.91l-12.124-7.208c-3.317-2.014-7.442-2.057-10.779-0.126l-22.387,12.947
					c-4.017,2.324-6.512,6.65-6.512,11.29v55.507C195.68,124.797,194.511,125.966,193.068,125.966z"/>
			</g>
			<path style="fill:#263238;" d="M226.522,61.58L226.522,61.58c-2.127-1.231-2.13-4.301-0.005-5.536l35.078-20.392
				c2.954-1.717,6.618-1.65,9.507,0.175l0,0L226.522,61.58z"/>
			<g>
				<polygon style="fill:#EBEBEB;" points="226.512,74.452 215.312,86.75 281.66,47.023 293.398,35.816 				"/>
				<path style="fill:#FAFAFA;" d="M212.657,88.923l13.605-14.904l70.5-40.723l-14.845,14.156L212.657,88.923z M226.829,74.846
					l-8.863,9.732l63.39-37.956l8.678-8.286L226.829,74.846z"/>
			</g>
			<path style="fill:#37474F;" d="M289.883,38.45l-8.542,8.155l-63.256,37.876l8.758-9.617L289.883,38.45 M293.398,35.816
				l-66.886,38.636l-11.2,12.299l66.348-39.727L293.398,35.816L293.398,35.816z"/>
			<polygon style="fill:#455A64;" points="226.512,74.452 215.364,68.006 282.25,29.391 293.398,35.816 			"/>
			<polygon style="fill:#263238;" points="215.364,68.006 215.364,68.006 215.312,86.75 226.512,74.452 			"/>
		</g>
		<polygon style="fill:#37474F;" points="211.428,116.004 188.16,129.438 179.724,118.605 202.992,105.171 		"/>
		<path style="fill:#263238;" d="M199.005,119.019c0,0.947-0.768,1.714-1.714,1.714c-0.947,0-1.714-0.768-1.714-1.714
			s0.768-1.714,1.714-1.714C198.237,117.304,199.005,118.072,199.005,119.019z"/>
		<g>
			<path style="fill:#BA68C8;" d="M184.364,270.746c-0.541,0-1.068-0.28-1.358-0.784c-0.433-0.75-0.177-1.708,0.573-2.141
				L349.028,172.3c0.749-0.433,1.708-0.177,2.141,0.573c0.433,0.749,0.177,1.708-0.573,2.141l-165.448,95.522
				C184.9,270.679,184.63,270.746,184.364,270.746z"/>
		</g>
	</g>
</g>
<g id="Plant">
	<g>
		<g>
			<path style="fill:#BA68C8;" d="M191,389.294c0,0-13.051-12.745-5.623-34.093c4.163-11.965,17.955-20.751,25.811-21.577
				c0,0-4.262,4.91-6.138,10.35l-9.893,6.577l9.093-2.847l-1.937,7.784c0,0-8.458,5.114-9.711,6.23l9.117-2.383
				C201.72,359.334,201.021,381.372,191,389.294z"/>
			<path style="opacity:0.4;" d="M191,389.294c0,0-13.051-12.745-5.623-34.093c4.163-11.965,17.955-20.751,25.811-21.577
				c0,0-4.262,4.91-6.138,10.35l-9.893,6.577l9.093-2.847l-1.937,7.784c0,0-8.458,5.114-9.711,6.23l9.117-2.383
				C201.72,359.334,201.021,381.372,191,389.294z"/>
			<path style="fill:#FFFFFF;" d="M191,389.294c0,0-6.758-26.67,3.24-42.223C194.24,347.072,182.52,360.796,191,389.294z"/>
		</g>
		<path style="fill:#37474F;" d="M205.936,392.905l-15.968-0.2v-0.002l-0.082,0.001l-0.082-0.001v0.002l-15.968,0.2
			c0,0-0.177,19.671,5.882,27.676h0c1.673,2.128,5.596,3.622,10.168,3.622c4.581,0,8.508-1.499,10.176-3.633
			C206.112,412.559,205.936,392.905,205.936,392.905z"/>
		<ellipse style="fill:#455A64;" cx="189.886" cy="392.905" rx="16.05" ry="8.617"/>
		<g>
			<path style="fill:#263238;" d="M189.886,390.619c5.522,0,10.198,1.771,11.846,4.224c0.41-0.61,0.64-1.26,0.64-1.938
				c0-3.403-5.59-6.162-12.486-6.162c-6.896,0-12.485,2.759-12.485,6.162c0,0.678,0.23,1.328,0.64,1.938
				C179.688,392.391,184.364,390.619,189.886,390.619z"/>
			<g>
				<path style="fill:#E0E0E0;" d="M189.886,390.619c-5.522,0-10.198,1.771-11.846,4.224c1.647,2.453,6.324,4.224,11.846,4.224
					c5.522,0,10.198-1.771,11.846-4.224C200.084,392.391,195.408,390.619,189.886,390.619z"/>
			</g>
		</g>
		<g>
			<path style="fill:#BA68C8;" d="M190.082,395.908c0,0-6.185-0.24-11.491-8.455c-2.188-3.388-3.243-5.168-3.243-5.168l8.618-0.642
				l-9.655-2.414l-4.562-6.98l8.018-0.595c0,0-5.972-2.092-10.236-2.119c0,0-7.394-13.062-9.557-14.924
				c0,0,17.053,0.141,29.209,14.513C199.338,383.496,191.886,396.276,190.082,395.908z"/>
			<path style="fill:#FFFFFF;" d="M190.082,395.908c0,0,3.869-23.301-20.82-37.318C169.262,358.59,194.886,370.898,190.082,395.908z
				"/>
		</g>
		<g>
			<path style="fill:#BA68C8;" d="M190.082,395.908c0,0,5.603,0.366,11.164-6.547c2.293-2.851,3.412-4.357,3.412-4.357l-7.715-1.391
				l8.939-1.269l4.773-5.868l-7.178-1.292c0,0,5.585-1.325,9.435-0.948c0,0,7.901-11.089,10.028-12.564
				c0,0-15.399-1.478-27.72,10.344C182.9,383.838,188.42,396.07,190.082,395.908z"/>
			<path style="opacity:0.2;" d="M190.082,395.908c0,0,5.603,0.366,11.164-6.547c2.293-2.851,3.412-4.357,3.412-4.357l-7.715-1.391
				l8.939-1.269l4.773-5.868l-7.178-1.292c0,0,5.585-1.325,9.435-0.948c0,0,7.901-11.089,10.028-12.564
				c0,0-15.399-1.478-27.72,10.344C182.9,383.838,188.42,396.07,190.082,395.908z"/>
			<path style="fill:#FFFFFF;" d="M190.082,395.908c0,0-1.296-21.387,22.298-31.709C212.38,364.199,188.103,372.891,190.082,395.908
				z"/>
		</g>
	</g>
</g>
<g id="Papers">
	<g>
		<path style="fill:#37474F;" d="M80.059,327.572v61.025l0,0c0,4.59,3.033,9.18,9.098,12.682c12.131,7.004,31.799,7.004,43.93,0
			c6.066-3.502,9.098-8.092,9.098-12.682l0,0v-61.025H80.059z"/>
		<ellipse style="fill:#455A64;" cx="111.122" cy="327.308" rx="31.063" ry="17.934"/>
		<path style="fill:#263238;" d="M132.408,335.752c-0.878,0.742-1.891,1.442-3.019,2.1c-0.209,0.125-0.418,0.24-0.637,0.355
			c-1.358,0.742-2.831,1.369-4.378,1.912c-0.606,0.209-1.233,0.407-1.86,0.575c-1.41,0.407-2.883,0.731-4.378,0.972
			c-1.264,0.209-2.56,0.366-3.855,0.449c-0.522,0.042-1.045,0.073-1.567,0.084c-0.982,0.031-1.975,0.031-2.957,0
			c-1.233-0.031-2.455-0.115-3.667-0.251c-1.557-0.178-3.092-0.439-4.576-0.794c-0.606-0.136-1.201-0.282-1.786-0.46
			c-2.487-0.7-4.806-1.651-6.875-2.842c-0.993-0.575-1.881-1.181-2.675-1.807c-5.882-4.681-6.457-10.897-1.734-15.88
			c1.149-1.222,2.622-2.372,4.409-3.406c1.734-1.003,3.667-1.839,5.715-2.487c0.376-0.125,0.773-0.251,1.16-0.355
			c1.045-0.303,2.121-0.554,3.218-0.752c1.17-0.23,2.361-0.408,3.573-0.533c2.037-0.219,4.127-0.293,6.196-0.209
			c1.828,0.063,3.646,0.24,5.422,0.533c0.115,0.01,0.24,0.031,0.355,0.052c1.369,0.23,2.716,0.533,4.022,0.909
			c1.891,0.533,3.699,1.212,5.36,2.037c0.522,0.251,1.024,0.522,1.515,0.805c0.815,0.47,1.567,0.972,2.257,1.484
			c1.16,0.867,2.121,1.797,2.894,2.758C138.363,325.733,137.653,331.385,132.408,335.752z"/>
		<g>
			<path style="fill:#BA68C8;" d="M112.076,248.38v18.979h9.712v-12.926C121.788,254.434,118.169,249.156,112.076,248.38z"/>
			<path style="opacity:0.3;fill:#FFFFFF;" d="M112.076,248.38v18.979h9.712v-12.926
				C121.788,254.434,118.169,249.156,112.076,248.38z"/>
			<path style="fill:#BA68C8;" d="M118.136,253.111v88.555c-1.264,0.209-2.56,0.366-3.855,0.449
				c-0.522,0.042-1.045,0.073-1.567,0.084c-0.982,0.031-1.975,0.031-2.957,0c-1.233-0.031-2.455-0.115-3.667-0.251
				c-1.557-0.178-3.092-0.439-4.576-0.794c-0.606-0.136-1.201-0.282-1.786-0.46v-87.583H118.136z"/>
			<path style="opacity:0.7;fill:#FFFFFF;" d="M118.136,253.111v88.555c-1.264,0.209-2.56,0.366-3.855,0.449
				c-0.522,0.042-1.045,0.073-1.567,0.084c-0.982,0.031-1.975,0.031-2.957,0c-1.233-0.031-2.455-0.115-3.667-0.251
				c-1.557-0.178-3.092-0.439-4.576-0.794c-0.606-0.136-1.201-0.282-1.786-0.46v-87.583H118.136z"/>
			<path style="fill:#BA68C8;" d="M122.514,256.088v84.605c-1.41,0.407-2.883,0.731-4.378,0.972
				c-1.264,0.209-2.56,0.366-3.855,0.449c-0.522,0.042-1.045,0.073-1.567,0.084v-78.849c2.299-0.387,4.064-1.066,5.422-1.86
				c1.954-1.139,3.061-2.518,3.657-3.594C122.389,256.851,122.514,256.088,122.514,256.088z"/>
			<path style="opacity:0.5;fill:#FFFFFF;" d="M122.514,256.088v84.605c-1.41,0.407-2.883,0.731-4.378,0.972
				c-1.264,0.209-2.56,0.366-3.855,0.449c-0.522,0.042-1.045,0.073-1.567,0.084v-78.849c2.299-0.387,4.064-1.066,5.422-1.86
				c1.954-1.139,3.061-2.518,3.657-3.594C122.389,256.851,122.514,256.088,122.514,256.088z"/>
			<path style="fill:#BA68C8;" d="M113.173,263.723c-0.217,0-0.411-0.153-0.454-0.374c-0.049-0.251,0.114-0.495,0.365-0.544
				c1.856-0.365,3.502-0.957,4.893-1.76c2.328-1.344,3.61-3.102,3.61-4.953c0-1.85-1.282-3.609-3.61-4.953
				c-2.408-1.39-5.619-2.156-9.042-2.156c-0.256,0-0.463-0.207-0.463-0.463c0-0.256,0.207-0.463,0.463-0.463
				c3.583,0,6.959,0.81,9.505,2.28c2.626,1.516,4.073,3.56,4.073,5.755c0,2.195-1.446,4.239-4.073,5.755
				c-1.479,0.854-3.221,1.482-5.177,1.866C113.233,263.72,113.203,263.723,113.173,263.723z"/>
			<path style="opacity:0.5;fill:#FFFFFF;" d="M113.173,263.723c-0.217,0-0.411-0.153-0.454-0.374
				c-0.049-0.251,0.114-0.495,0.365-0.544c1.856-0.365,3.502-0.957,4.893-1.76c2.328-1.344,3.61-3.102,3.61-4.953
				c0-1.85-1.282-3.609-3.61-4.953c-2.408-1.39-5.619-2.156-9.042-2.156c-0.256,0-0.463-0.207-0.463-0.463
				c0-0.256,0.207-0.463,0.463-0.463c3.583,0,6.959,0.81,9.505,2.28c2.626,1.516,4.073,3.56,4.073,5.755
				c0,2.195-1.446,4.239-4.073,5.755c-1.479,0.854-3.221,1.482-5.177,1.866C113.233,263.72,113.203,263.723,113.173,263.723z"/>
			<path style="fill:#BA68C8;" d="M115.443,249.614c3.594,2.075,3.594,5.44,0,7.515c-3.594,2.075-9.422,2.075-13.016,0
				c-3.594-2.075-3.594-5.44,0-7.515C106.021,247.539,111.848,247.539,115.443,249.614z"/>
			<path style="opacity:0.5;fill:#FFFFFF;" d="M115.443,249.614c3.594,2.075,3.594,5.44,0,7.515c-3.594,2.075-9.422,2.075-13.016,0
				c-3.594-2.075-3.594-5.44,0-7.515C106.021,247.539,111.848,247.539,115.443,249.614z"/>
		</g>
		<g>
			<path style="fill:#BA68C8;" d="M132.457,280.933l-2.033,14.043l7.186,1.04l1.384-9.564
				C138.995,286.452,136.882,282.159,132.457,280.933z"/>
			<path style="opacity:0.3;fill:#FFFFFF;" d="M132.457,280.933l-2.033,14.043l7.186,1.04l1.384-9.564
				C138.995,286.452,136.882,282.159,132.457,280.933z"/>
			<path style="fill:#BA68C8;" d="M136.441,285.081l-0.836,5.788l-0.063,0.418l-0.052,0.376l-0.575,3.96l-3.27,22.619l-2.894,19.966
				c-1.358,0.742-2.831,1.369-4.378,1.912c-0.606,0.209-1.233,0.407-1.86,0.575c-1.41,0.407-2.883,0.731-4.378,0.972
				c-1.264,0.209-2.56,0.366-3.855,0.449l3.855-26.673l0.355-2.434l4.022-27.812l0.303-2.09h0.021l9.11,1.327l4.472,0.648H136.441z"
				/>
			<path style="opacity:0.7;fill:#FFFFFF;" d="M136.441,285.081l-0.836,5.788l-0.063,0.418l-0.052,0.376l-0.575,3.96l-3.27,22.619
				l-2.894,19.966c-1.358,0.742-2.831,1.369-4.378,1.912c-0.606,0.209-1.233,0.407-1.86,0.575c-1.41,0.407-2.883,0.731-4.378,0.972
				c-1.264,0.209-2.56,0.366-3.855,0.449l3.855-26.673l0.355-2.434l4.022-27.812l0.303-2.09h0.021l9.11,1.327l4.472,0.648H136.441z"
				/>
			<path style="fill:#BA68C8;" d="M139.356,287.755L134.539,321l-2.131,14.752c-0.878,0.742-1.891,1.442-3.019,2.1
				c-0.209,0.125-0.418,0.24-0.637,0.355c-1.358,0.742-2.831,1.369-4.378,1.912l3.5-24.166l3.03-20.906l0.428-2.967
				c1.745-0.042,3.124-0.355,4.21-0.794c1.557-0.627,2.507-1.515,3.072-2.246C139.178,288.319,139.356,287.755,139.356,287.755z"/>
			<path style="opacity:0.5;fill:#FFFFFF;" d="M139.356,287.755L134.539,321l-2.131,14.752c-0.878,0.742-1.891,1.442-3.019,2.1
				c-0.209,0.125-0.418,0.24-0.637,0.355c-1.358,0.742-2.831,1.369-4.378,1.912l3.5-24.166l3.03-20.906l0.428-2.967
				c1.745-0.042,3.124-0.355,4.21-0.794c1.557-0.627,2.507-1.515,3.072-2.246C139.178,288.319,139.356,287.755,139.356,287.755z"/>
			<path style="fill:#BA68C8;" d="M131.626,292.403c-0.161-0.023-0.287-0.157-0.296-0.325c-0.01-0.191,0.137-0.354,0.328-0.363
				c1.412-0.071,2.694-0.333,3.809-0.778c1.866-0.745,3.003-1.909,3.201-3.278c0.198-1.369-0.562-2.808-2.14-4.051
				c-1.633-1.286-3.927-2.197-6.46-2.564c-0.189-0.027-0.32-0.203-0.293-0.392c0.027-0.189,0.203-0.321,0.392-0.293
				c2.651,0.384,5.062,1.344,6.789,2.705c1.781,1.403,2.632,3.07,2.397,4.694c-0.235,1.624-1.524,2.981-3.63,3.822
				c-1.186,0.473-2.542,0.751-4.03,0.827C131.67,292.407,131.648,292.406,131.626,292.403z"/>
			<path style="opacity:0.5;fill:#FFFFFF;" d="M131.626,292.403c-0.161-0.023-0.287-0.157-0.296-0.325
				c-0.01-0.191,0.137-0.354,0.328-0.363c1.412-0.071,2.694-0.333,3.809-0.778c1.866-0.745,3.003-1.909,3.201-3.278
				c0.198-1.369-0.562-2.808-2.14-4.051c-1.633-1.286-3.927-2.197-6.46-2.564c-0.189-0.027-0.32-0.203-0.293-0.392
				c0.027-0.189,0.203-0.321,0.392-0.293c2.651,0.384,5.062,1.344,6.789,2.705c1.781,1.403,2.632,3.07,2.397,4.694
				c-0.235,1.624-1.524,2.981-3.63,3.822c-1.186,0.473-2.542,0.751-4.03,0.827C131.67,292.407,131.648,292.406,131.626,292.403z"/>
			<path style="fill:#BA68C8;" d="M134.816,282.207c2.437,1.92,2.077,4.41-0.805,5.56c-2.882,1.15-7.194,0.526-9.631-1.394
				c-2.437-1.92-2.077-4.41,0.805-5.56C128.067,279.662,132.379,280.286,134.816,282.207z"/>
			<path style="opacity:0.5;fill:#FFFFFF;" d="M134.816,282.207c2.437,1.92,2.077,4.41-0.805,5.56
				c-2.882,1.15-7.194,0.526-9.631-1.394c-2.437-1.92-2.077-4.41,0.805-5.56C128.067,279.662,132.379,280.286,134.816,282.207z"/>
		</g>
		<g>
			<path style="fill:#BA68C8;" d="M93.264,270.677l1.703,15.555l7.96-0.871l-1.16-10.594
				C101.768,274.767,98.328,270.766,93.264,270.677z"/>
			<path style="opacity:0.3;fill:#FFFFFF;" d="M93.264,270.677l1.703,15.555l7.96-0.871l-1.16-10.594
				C101.768,274.767,98.328,270.766,93.264,270.677z"/>
			<path style="fill:#BA68C8;" d="M106.09,341.947c-1.557-0.178-3.092-0.439-4.576-0.794c-0.606-0.136-1.201-0.282-1.786-0.46
				c-2.487-0.7-4.806-1.651-6.875-2.842c-0.993-0.575-1.881-1.181-2.675-1.807l-1.734-15.88l-4.869-44.507h0.021l10.093-1.107
				l4.952-0.543h0.021l0.7,6.425l0.052,0.439l0.042,0.428l0.272,2.445l0.209,1.943l3.009,27.478L106.09,341.947z"/>
			<path style="opacity:0.7;fill:#FFFFFF;" d="M106.09,341.947c-1.557-0.178-3.092-0.439-4.576-0.794
				c-0.606-0.136-1.201-0.282-1.786-0.46c-2.487-0.7-4.806-1.651-6.875-2.842c-0.993-0.575-1.881-1.181-2.675-1.807l-1.734-15.88
				l-4.869-44.507h0.021l10.093-1.107l4.952-0.543h0.021l0.7,6.425l0.052,0.439l0.042,0.428l0.272,2.445l0.209,1.943l3.009,27.478
				L106.09,341.947z"/>
			<path style="fill:#BA68C8;" d="M106.09,341.947c-1.557-0.178-3.092-0.439-4.576-0.794l-1.786-16.288l-1.16-10.594l-3.082-28.094
				l-0.355-3.291c1.86-0.522,3.249-1.243,4.284-2.016c0.115-0.084,0.219-0.157,0.313-0.24c1.285-1.034,1.985-2.142,2.351-3.009
				c0.397-0.919,0.428-1.557,0.428-1.557l4.012,36.567l3.239,29.567C108.525,342.167,107.302,342.083,106.09,341.947z"/>
			<path style="opacity:0.5;fill:#FFFFFF;" d="M106.09,341.947c-1.557-0.178-3.092-0.439-4.576-0.794l-1.786-16.288l-1.16-10.594
				l-3.082-28.094l-0.355-3.291c1.86-0.522,3.249-1.243,4.284-2.016c0.115-0.084,0.219-0.157,0.313-0.24
				c1.285-1.034,1.985-2.142,2.351-3.009c0.397-0.919,0.428-1.557,0.428-1.557l4.012,36.567l3.239,29.567
				C108.525,342.167,107.302,342.083,106.09,341.947z"/>
			<path style="fill:#BA68C8;" d="M95.541,283.153c-0.178,0.019-0.35-0.089-0.406-0.266c-0.063-0.201,0.049-0.416,0.25-0.479
				c1.489-0.466,2.785-1.099,3.852-1.881c1.787-1.31,2.68-2.867,2.514-4.383c-0.166-1.516-1.374-2.843-3.403-3.735
				c-2.098-0.923-4.799-1.263-7.604-0.956c-0.21,0.023-0.398-0.128-0.421-0.338c-0.023-0.21,0.128-0.398,0.338-0.421
				c2.936-0.321,5.776,0.039,7.995,1.016c2.289,1.007,3.657,2.552,3.854,4.351c0.197,1.799-0.805,3.604-2.821,5.082
				c-1.135,0.832-2.507,1.503-4.075,1.994C95.589,283.146,95.565,283.151,95.541,283.153z"/>
			<path style="opacity:0.5;fill:#FFFFFF;" d="M95.541,283.153c-0.178,0.019-0.35-0.089-0.406-0.266
				c-0.063-0.201,0.049-0.416,0.25-0.479c1.489-0.466,2.785-1.099,3.852-1.881c1.787-1.31,2.68-2.867,2.514-4.383
				c-0.166-1.516-1.374-2.843-3.403-3.735c-2.098-0.923-4.799-1.263-7.604-0.956c-0.21,0.023-0.398-0.128-0.421-0.338
				c-0.023-0.21,0.128-0.398,0.338-0.421c2.936-0.321,5.776,0.039,7.995,1.016c2.289,1.007,3.657,2.552,3.854,4.351
				c0.197,1.799-0.805,3.604-2.821,5.082c-1.135,0.832-2.507,1.503-4.075,1.994C95.589,283.146,95.565,283.151,95.541,283.153z"/>
			<path style="fill:#BA68C8;" d="M96.134,271.387c3.132,1.378,3.434,4.135,0.674,6.159c-2.759,2.023-7.535,2.546-10.667,1.168
				c-3.132-1.378-3.434-4.135-0.674-6.159C88.227,270.531,93.003,270.008,96.134,271.387z"/>
			<path style="opacity:0.5;fill:#FFFFFF;" d="M96.134,271.387c3.132,1.378,3.434,4.135,0.674,6.159
				c-2.759,2.023-7.535,2.546-10.667,1.168c-3.132-1.378-3.434-4.135-0.674-6.159C88.227,270.531,93.003,270.008,96.134,271.387z"/>
		</g>
	</g>
</g>
<g id="Character">
	<g>
		<g>
			<path style="fill:#BA68C8;" d="M317.753,139.037l-75.547,43.617c-0.261,0.151-0.595,0.079-0.77-0.166l-8.548-11.921
				c-0.202-0.282-0.117-0.677,0.184-0.85l75.547-43.617c0.261-0.151,0.595-0.079,0.77,0.166l8.548,11.921
				C318.139,138.469,318.054,138.864,317.753,139.037z"/>
			<g>
				<defs>
					<path id="SVGID_1_" d="M317.753,139.037l-75.547,43.617c-0.261,0.151-0.595,0.079-0.77-0.166l-8.548-11.921
						c-0.202-0.282-0.117-0.677,0.184-0.85l75.547-43.617c0.261-0.151,0.595-0.079,0.77,0.166l8.548,11.921
						C318.139,138.469,318.054,138.864,317.753,139.037z"/>
				</defs>
				<clipPath id="SVGID_00000097502736583283668040000002800272678755380880_">
					<use xlink:href="#SVGID_1_"  style="overflow:visible;"/>
				</clipPath>
				<g style="clip-path:url(#SVGID_00000097502736583283668040000002800272678755380880_);">
					<g>
						<path style="fill:#263238;" d="M236.592,172.043c-0.039,0-0.077-0.018-0.102-0.052l-2.114-2.94
							c-0.04-0.056-0.027-0.134,0.028-0.174c0.057-0.041,0.134-0.028,0.175,0.029l2.114,2.94c0.04,0.056,0.027,0.134-0.028,0.174
							C236.643,172.035,236.617,172.043,236.592,172.043z"/>
						<path style="fill:#263238;" d="M236.589,169.98c-0.039,0-0.077-0.018-0.102-0.052l-1.074-1.493
							c-0.04-0.056-0.027-0.134,0.028-0.175c0.057-0.04,0.134-0.028,0.175,0.029l1.074,1.493c0.04,0.056,0.027,0.134-0.028,0.175
							C236.64,169.973,236.614,169.98,236.589,169.98z"/>
						<path style="fill:#263238;" d="M237.66,169.354c-0.039,0-0.077-0.018-0.102-0.052l-1.074-1.494
							c-0.04-0.056-0.027-0.134,0.028-0.174c0.057-0.04,0.135-0.028,0.175,0.029l1.074,1.494c0.04,0.056,0.027,0.134-0.028,0.174
							C237.711,169.346,237.686,169.354,237.66,169.354z"/>
						<path style="fill:#263238;" d="M238.731,168.727c-0.039,0-0.077-0.018-0.102-0.052l-1.074-1.493
							c-0.04-0.056-0.027-0.134,0.028-0.175c0.056-0.04,0.134-0.028,0.175,0.029l1.074,1.493c0.04,0.056,0.027,0.134-0.028,0.175
							C238.782,168.719,238.757,168.727,238.731,168.727z"/>
						<path style="fill:#263238;" d="M239.802,168.101c-0.039,0-0.077-0.018-0.102-0.052l-1.074-1.493
							c-0.04-0.056-0.027-0.134,0.028-0.175c0.057-0.041,0.135-0.028,0.175,0.029l1.074,1.493c0.04,0.056,0.027,0.134-0.028,0.175
							C239.852,168.093,239.827,168.101,239.802,168.101z"/>
					</g>
					<g>
						<path style="fill:#263238;" d="M241.914,168.945c-0.039,0-0.077-0.018-0.102-0.052l-2.115-2.94
							c-0.04-0.056-0.027-0.134,0.028-0.174c0.057-0.041,0.135-0.028,0.175,0.029l2.115,2.941c0.04,0.056,0.027,0.134-0.028,0.174
							C241.965,168.938,241.939,168.945,241.914,168.945z"/>
						<path style="fill:#263238;" d="M241.911,166.883c-0.039,0-0.077-0.018-0.102-0.052l-1.074-1.493
							c-0.04-0.056-0.027-0.134,0.028-0.175c0.057-0.041,0.134-0.028,0.175,0.029l1.074,1.493c0.04,0.056,0.027,0.134-0.028,0.175
							C241.962,166.876,241.936,166.883,241.911,166.883z"/>
						<path style="fill:#263238;" d="M242.982,166.257c-0.039,0-0.077-0.018-0.102-0.052l-1.074-1.494
							c-0.04-0.056-0.027-0.134,0.028-0.174c0.057-0.041,0.135-0.028,0.175,0.029l1.074,1.494c0.04,0.056,0.027,0.134-0.028,0.174
							C243.033,166.249,243.008,166.257,242.982,166.257z"/>
						<path style="fill:#263238;" d="M244.053,165.63c-0.039,0-0.077-0.018-0.102-0.052l-1.074-1.493
							c-0.04-0.056-0.027-0.134,0.028-0.175c0.056-0.04,0.134-0.028,0.175,0.029l1.074,1.493c0.04,0.056,0.027,0.134-0.028,0.175
							C244.104,165.622,244.078,165.63,244.053,165.63z"/>
						<path style="fill:#263238;" d="M245.124,165.003c-0.039,0-0.077-0.018-0.101-0.052l-1.074-1.494
							c-0.04-0.056-0.027-0.134,0.028-0.174c0.057-0.04,0.135-0.028,0.175,0.029l1.074,1.494c0.04,0.056,0.027,0.134-0.028,0.174
							C245.175,164.996,245.149,165.003,245.124,165.003z"/>
					</g>
					<g>
						<path style="fill:#263238;" d="M247.236,165.848c-0.039,0-0.077-0.018-0.102-0.052l-2.115-2.94
							c-0.04-0.056-0.027-0.134,0.028-0.174c0.057-0.041,0.135-0.028,0.175,0.029l2.115,2.94c0.04,0.056,0.027,0.134-0.028,0.174
							C247.287,165.84,247.262,165.848,247.236,165.848z"/>
						<path style="fill:#263238;" d="M247.233,163.786c-0.039,0-0.077-0.018-0.102-0.052l-1.074-1.494
							c-0.04-0.056-0.027-0.134,0.028-0.174c0.057-0.04,0.134-0.028,0.175,0.029l1.074,1.494c0.04,0.056,0.027,0.134-0.028,0.174
							C247.284,163.778,247.259,163.786,247.233,163.786z"/>
						<path style="fill:#263238;" d="M248.304,163.159c-0.039,0-0.077-0.018-0.102-0.052l-1.074-1.493
							c-0.04-0.056-0.027-0.134,0.028-0.175c0.057-0.04,0.134-0.028,0.175,0.029l1.074,1.493c0.04,0.056,0.027,0.134-0.028,0.175
							C248.355,163.151,248.329,163.159,248.304,163.159z"/>
						<path style="fill:#263238;" d="M249.375,162.533c-0.039,0-0.077-0.018-0.102-0.052l-1.074-1.494
							c-0.04-0.056-0.027-0.134,0.028-0.174c0.056-0.04,0.134-0.027,0.175,0.029l1.074,1.494c0.04,0.056,0.027,0.134-0.028,0.174
							C249.426,162.525,249.4,162.533,249.375,162.533z"/>
						<path style="fill:#263238;" d="M250.446,161.906c-0.039,0-0.077-0.018-0.102-0.052l-1.074-1.493
							c-0.04-0.056-0.027-0.134,0.028-0.175c0.057-0.041,0.134-0.028,0.175,0.029l1.074,1.493c0.04,0.056,0.027,0.134-0.028,0.175
							C250.497,161.898,250.472,161.906,250.446,161.906z"/>
					</g>
					<g>
						<path style="fill:#263238;" d="M252.558,162.751c-0.039,0-0.077-0.018-0.102-0.052l-2.114-2.94
							c-0.04-0.056-0.027-0.134,0.028-0.174c0.057-0.04,0.135-0.028,0.175,0.029l2.114,2.94c0.04,0.056,0.027,0.134-0.028,0.174
							C252.608,162.743,252.583,162.751,252.558,162.751z"/>
						<path style="fill:#263238;" d="M252.555,160.689c-0.039,0-0.077-0.018-0.102-0.052l-1.074-1.494
							c-0.04-0.056-0.027-0.134,0.028-0.174c0.057-0.041,0.135-0.028,0.175,0.029l1.074,1.494c0.04,0.056,0.027,0.134-0.028,0.174
							C252.605,160.681,252.58,160.689,252.555,160.689z"/>
						<path style="fill:#263238;" d="M253.626,160.062c-0.039,0-0.077-0.018-0.102-0.052l-1.074-1.494
							c-0.04-0.056-0.027-0.134,0.028-0.174c0.057-0.041,0.134-0.028,0.175,0.029l1.074,1.494c0.04,0.056,0.027,0.134-0.028,0.174
							C253.677,160.054,253.651,160.062,253.626,160.062z"/>
						<path style="fill:#263238;" d="M254.697,159.436c-0.039,0-0.077-0.018-0.102-0.052l-1.074-1.494
							c-0.04-0.056-0.027-0.134,0.028-0.174c0.056-0.04,0.134-0.028,0.175,0.029l1.074,1.494c0.04,0.056,0.027,0.134-0.028,0.174
							C254.748,159.428,254.723,159.436,254.697,159.436z"/>
						<path style="fill:#263238;" d="M255.769,158.809c-0.039,0-0.077-0.018-0.102-0.052l-1.074-1.493
							c-0.04-0.056-0.027-0.134,0.028-0.175c0.057-0.04,0.134-0.028,0.175,0.029l1.074,1.493c0.04,0.056,0.027,0.134-0.028,0.175
							C255.819,158.801,255.794,158.809,255.769,158.809z"/>
					</g>
					<g>
						<path style="fill:#263238;" d="M257.88,159.653c-0.039,0-0.077-0.018-0.102-0.052l-2.115-2.941
							c-0.04-0.056-0.027-0.134,0.028-0.174c0.057-0.04,0.134-0.028,0.175,0.029l2.115,2.94c0.04,0.056,0.027,0.134-0.028,0.174
							C257.931,159.645,257.905,159.653,257.88,159.653z"/>
						<path style="fill:#263238;" d="M257.877,157.591c-0.039,0-0.077-0.018-0.102-0.052l-1.074-1.493
							c-0.04-0.056-0.027-0.134,0.028-0.175c0.057-0.04,0.134-0.028,0.175,0.029l1.074,1.493c0.04,0.056,0.027,0.134-0.028,0.175
							C257.928,157.583,257.902,157.591,257.877,157.591z"/>
						<path style="fill:#263238;" d="M258.948,156.965c-0.039,0-0.077-0.018-0.102-0.052l-1.074-1.494
							c-0.04-0.056-0.027-0.134,0.028-0.174c0.057-0.04,0.134-0.028,0.175,0.029l1.074,1.494c0.04,0.056,0.027,0.134-0.028,0.174
							C258.999,156.957,258.974,156.965,258.948,156.965z"/>
						<path style="fill:#263238;" d="M260.019,156.338c-0.039,0-0.077-0.018-0.102-0.052l-1.074-1.493
							c-0.04-0.056-0.027-0.134,0.028-0.175c0.056-0.041,0.134-0.028,0.175,0.029l1.074,1.493c0.04,0.056,0.027,0.134-0.028,0.175
							C260.069,156.33,260.044,156.338,260.019,156.338z"/>
						<path style="fill:#263238;" d="M261.09,155.711c-0.039,0-0.077-0.018-0.102-0.052l-1.074-1.494
							c-0.04-0.056-0.027-0.134,0.028-0.174c0.057-0.041,0.134-0.028,0.175,0.029l1.074,1.494c0.04,0.056,0.027,0.134-0.028,0.174
							C261.141,155.704,261.115,155.711,261.09,155.711z"/>
					</g>
					<g>
						<path style="fill:#263238;" d="M263.202,156.556c-0.039,0-0.077-0.018-0.102-0.052l-2.115-2.94
							c-0.04-0.056-0.027-0.134,0.028-0.174c0.057-0.04,0.134-0.027,0.175,0.029l2.115,2.94c0.04,0.056,0.027,0.134-0.028,0.174
							C263.253,156.548,263.228,156.556,263.202,156.556z"/>
						<path style="fill:#263238;" d="M263.199,154.494c-0.039,0-0.077-0.018-0.102-0.052l-1.074-1.494
							c-0.04-0.056-0.027-0.134,0.028-0.174c0.057-0.04,0.134-0.028,0.175,0.029l1.074,1.494c0.04,0.056,0.027,0.134-0.028,0.174
							C263.25,154.486,263.225,154.494,263.199,154.494z"/>
						<path style="fill:#263238;" d="M264.27,153.867c-0.039,0-0.077-0.018-0.102-0.052l-1.074-1.493
							c-0.04-0.056-0.027-0.134,0.028-0.175c0.057-0.04,0.135-0.028,0.175,0.029l1.074,1.493c0.04,0.056,0.027,0.134-0.028,0.175
							C264.32,153.859,264.295,153.867,264.27,153.867z"/>
						<path style="fill:#263238;" d="M265.341,153.241c-0.039,0-0.077-0.018-0.102-0.052l-1.074-1.494
							c-0.04-0.056-0.027-0.134,0.028-0.174c0.056-0.04,0.134-0.028,0.175,0.029l1.074,1.494c0.04,0.056,0.027,0.134-0.028,0.174
							C265.392,153.233,265.366,153.241,265.341,153.241z"/>
						<path style="fill:#263238;" d="M266.412,152.614c-0.039,0-0.077-0.018-0.102-0.052l-1.074-1.493
							c-0.04-0.056-0.027-0.134,0.028-0.175c0.057-0.04,0.135-0.028,0.175,0.029l1.074,1.493c0.04,0.056,0.027,0.134-0.028,0.175
							C266.463,152.606,266.438,152.614,266.412,152.614z"/>
					</g>
					<g>
						<path style="fill:#263238;" d="M268.523,153.459c-0.039,0-0.077-0.018-0.102-0.052l-2.114-2.94
							c-0.04-0.056-0.027-0.134,0.028-0.174c0.057-0.04,0.134-0.027,0.175,0.029l2.114,2.94c0.04,0.056,0.027,0.134-0.028,0.174
							C268.574,153.451,268.549,153.459,268.523,153.459z"/>
						<path style="fill:#263238;" d="M268.521,151.397c-0.039,0-0.077-0.018-0.102-0.052l-1.074-1.494
							c-0.04-0.056-0.027-0.134,0.028-0.174c0.057-0.04,0.135-0.028,0.175,0.029l1.074,1.494c0.04,0.056,0.027,0.134-0.028,0.174
							C268.571,151.389,268.546,151.397,268.521,151.397z"/>
						<path style="fill:#263238;" d="M269.592,150.77c-0.039,0-0.077-0.018-0.102-0.052l-1.074-1.494
							c-0.04-0.056-0.027-0.134,0.028-0.174c0.057-0.04,0.135-0.027,0.175,0.029l1.074,1.494c0.04,0.056,0.027,0.134-0.028,0.174
							C269.643,150.762,269.617,150.77,269.592,150.77z"/>
						<path style="fill:#263238;" d="M270.663,150.144c-0.039,0-0.077-0.018-0.102-0.052l-1.074-1.494
							c-0.04-0.056-0.027-0.134,0.028-0.174c0.056-0.04,0.134-0.028,0.175,0.029l1.074,1.494c0.04,0.056,0.027,0.134-0.028,0.174
							C270.714,150.136,270.689,150.144,270.663,150.144z"/>
						<path style="fill:#263238;" d="M271.734,149.517c-0.039,0-0.077-0.018-0.102-0.052l-1.074-1.493
							c-0.04-0.056-0.027-0.134,0.028-0.175c0.057-0.04,0.134-0.028,0.175,0.029l1.074,1.493c0.04,0.056,0.027,0.134-0.028,0.175
							C271.785,149.509,271.76,149.517,271.734,149.517z"/>
					</g>
					<g>
						<path style="fill:#263238;" d="M273.846,150.361c-0.039,0-0.077-0.018-0.102-0.052l-2.115-2.94
							c-0.04-0.056-0.027-0.134,0.028-0.174c0.057-0.04,0.135-0.028,0.175,0.029l2.115,2.941c0.04,0.056,0.027,0.134-0.028,0.174
							C273.897,150.354,273.871,150.361,273.846,150.361z"/>
						<path style="fill:#263238;" d="M273.843,148.299c-0.039,0-0.077-0.018-0.102-0.052l-1.074-1.493
							c-0.04-0.056-0.027-0.134,0.028-0.175c0.057-0.04,0.134-0.027,0.175,0.029l1.074,1.493c0.04,0.056,0.027,0.134-0.028,0.175
							C273.894,148.292,273.868,148.299,273.843,148.299z"/>
						<path style="fill:#263238;" d="M274.914,147.673c-0.039,0-0.077-0.018-0.102-0.052l-1.074-1.494
							c-0.04-0.056-0.027-0.134,0.028-0.174c0.057-0.041,0.135-0.028,0.175,0.029l1.074,1.494c0.04,0.056,0.027,0.134-0.028,0.174
							C274.965,147.665,274.94,147.673,274.914,147.673z"/>
						<path style="fill:#263238;" d="M275.985,147.046c-0.039,0-0.077-0.018-0.102-0.052l-1.074-1.493
							c-0.04-0.056-0.027-0.134,0.028-0.175c0.056-0.04,0.134-0.028,0.175,0.029l1.074,1.493c0.04,0.056,0.027,0.134-0.028,0.175
							C276.036,147.038,276.011,147.046,275.985,147.046z"/>
						<path style="fill:#263238;" d="M277.056,146.419c-0.039,0-0.077-0.018-0.102-0.052l-1.074-1.494
							c-0.04-0.056-0.027-0.134,0.028-0.174c0.057-0.04,0.135-0.027,0.175,0.029l1.074,1.494c0.04,0.056,0.027,0.134-0.028,0.174
							C277.106,146.412,277.081,146.419,277.056,146.419z"/>
					</g>
					<g>
						<path style="fill:#263238;" d="M279.168,147.264c-0.039,0-0.077-0.018-0.102-0.052l-2.115-2.94
							c-0.04-0.056-0.027-0.134,0.028-0.174c0.057-0.041,0.135-0.028,0.175,0.029l2.115,2.94c0.04,0.056,0.027,0.134-0.028,0.174
							C279.219,147.256,279.193,147.264,279.168,147.264z"/>
						<path style="fill:#263238;" d="M279.165,145.202c-0.039,0-0.077-0.018-0.102-0.052l-1.074-1.494
							c-0.04-0.056-0.027-0.134,0.028-0.174c0.057-0.04,0.134-0.028,0.175,0.029l1.074,1.494c0.04,0.056,0.027,0.134-0.028,0.174
							C279.216,145.194,279.19,145.202,279.165,145.202z"/>
						<path style="fill:#263238;" d="M280.235,144.576c-0.039,0-0.077-0.018-0.102-0.052l-1.073-1.494
							c-0.04-0.056-0.027-0.134,0.028-0.174c0.057-0.041,0.135-0.028,0.175,0.029l1.073,1.494c0.04,0.056,0.027,0.134-0.028,0.174
							C280.286,144.568,280.261,144.576,280.235,144.576z"/>
						<path style="fill:#263238;" d="M281.307,143.949c-0.039,0-0.077-0.018-0.102-0.052l-1.074-1.494
							c-0.04-0.056-0.027-0.134,0.028-0.174c0.056-0.041,0.134-0.028,0.175,0.029l1.074,1.494c0.04,0.056,0.027,0.134-0.028,0.174
							C281.357,143.941,281.332,143.949,281.307,143.949z"/>
						<path style="fill:#263238;" d="M282.378,143.322c-0.039,0-0.077-0.018-0.102-0.052l-1.074-1.494
							c-0.04-0.056-0.027-0.134,0.028-0.174c0.057-0.041,0.135-0.028,0.175,0.029l1.074,1.494c0.04,0.056,0.027,0.134-0.028,0.174
							C282.429,143.314,282.403,143.322,282.378,143.322z"/>
					</g>
					<g>
						<path style="fill:#263238;" d="M284.489,144.167c-0.039,0-0.077-0.018-0.102-0.052l-2.114-2.94
							c-0.04-0.056-0.027-0.134,0.028-0.174c0.057-0.04,0.135-0.028,0.175,0.029l2.114,2.94c0.04,0.056,0.027,0.134-0.028,0.174
							C284.54,144.159,284.515,144.167,284.489,144.167z"/>
						<path style="fill:#263238;" d="M284.486,142.105c-0.039,0-0.077-0.018-0.102-0.052l-1.074-1.494
							c-0.04-0.056-0.027-0.134,0.028-0.174c0.057-0.04,0.134-0.028,0.175,0.029l1.074,1.494c0.04,0.056,0.027,0.134-0.028,0.174
							C284.537,142.097,284.512,142.105,284.486,142.105z"/>
						<path style="fill:#263238;" d="M285.558,141.478c-0.039,0-0.077-0.018-0.102-0.052l-1.074-1.493
							c-0.04-0.056-0.027-0.134,0.028-0.175c0.057-0.04,0.134-0.028,0.175,0.029l1.074,1.493c0.04,0.056,0.027,0.134-0.028,0.175
							C285.608,141.47,285.583,141.478,285.558,141.478z"/>
						<path style="fill:#263238;" d="M286.629,140.852c-0.039,0-0.077-0.018-0.102-0.052l-1.074-1.494
							c-0.04-0.056-0.027-0.134,0.028-0.174c0.056-0.04,0.134-0.028,0.175,0.029l1.074,1.494c0.04,0.056,0.027,0.134-0.028,0.174
							C286.68,140.844,286.654,140.852,286.629,140.852z"/>
						<path style="fill:#263238;" d="M287.7,140.225c-0.039,0-0.077-0.018-0.102-0.052l-1.074-1.493
							c-0.04-0.056-0.027-0.134,0.028-0.175c0.057-0.04,0.134-0.028,0.175,0.029l1.074,1.493c0.04,0.056,0.027,0.134-0.028,0.175
							C287.751,140.217,287.726,140.225,287.7,140.225z"/>
					</g>
					<g>
						<path style="fill:#263238;" d="M289.811,141.069c-0.039,0-0.077-0.018-0.102-0.052l-2.115-2.94
							c-0.04-0.056-0.027-0.134,0.028-0.174c0.057-0.04,0.134-0.028,0.175,0.029l2.115,2.94c0.04,0.056,0.027,0.134-0.028,0.174
							C289.862,141.061,289.837,141.069,289.811,141.069z"/>
						<path style="fill:#263238;" d="M289.809,139.007c-0.039,0-0.077-0.018-0.102-0.052l-1.074-1.493
							c-0.04-0.056-0.027-0.134,0.028-0.175c0.057-0.04,0.135-0.028,0.175,0.029l1.074,1.493c0.04,0.056,0.027,0.134-0.028,0.175
							C289.859,138.999,289.834,139.007,289.809,139.007z"/>
						<path style="fill:#263238;" d="M290.88,138.381c-0.039,0-0.077-0.018-0.102-0.052l-1.074-1.494
							c-0.04-0.056-0.027-0.134,0.028-0.174c0.057-0.04,0.134-0.028,0.175,0.029l1.074,1.494c0.04,0.056,0.027,0.134-0.028,0.174
							C290.931,138.373,290.905,138.381,290.88,138.381z"/>
						<path style="fill:#263238;" d="M291.951,137.754c-0.039,0-0.077-0.018-0.102-0.052l-1.074-1.493
							c-0.04-0.056-0.027-0.134,0.028-0.175c0.056-0.04,0.134-0.028,0.175,0.029l1.074,1.493c0.04,0.056,0.027,0.134-0.028,0.175
							C292.002,137.746,291.977,137.754,291.951,137.754z"/>
						<path style="fill:#263238;" d="M293.022,137.127c-0.039,0-0.077-0.018-0.102-0.052l-1.074-1.494
							c-0.04-0.056-0.027-0.134,0.028-0.174c0.057-0.04,0.134-0.028,0.175,0.029l1.074,1.494c0.04,0.056,0.027,0.134-0.028,0.174
							C293.072,137.12,293.047,137.127,293.022,137.127z"/>
					</g>
					<g>
						<path style="fill:#263238;" d="M295.134,137.972c-0.039,0-0.077-0.018-0.102-0.052l-2.115-2.94
							c-0.04-0.056-0.027-0.134,0.028-0.174c0.057-0.041,0.134-0.028,0.175,0.029l2.115,2.94c0.04,0.056,0.027,0.134-0.028,0.174
							C295.185,137.964,295.159,137.972,295.134,137.972z"/>
						<path style="fill:#263238;" d="M295.131,135.91c-0.039,0-0.077-0.018-0.102-0.052l-1.074-1.494
							c-0.04-0.056-0.027-0.134,0.028-0.174c0.057-0.04,0.134-0.028,0.175,0.029l1.074,1.494c0.04,0.056,0.027,0.134-0.028,0.174
							C295.182,135.902,295.156,135.91,295.131,135.91z"/>
						<path style="fill:#263238;" d="M296.202,135.284c-0.039,0-0.077-0.018-0.102-0.052l-1.074-1.494
							c-0.04-0.056-0.027-0.134,0.028-0.174c0.057-0.04,0.134-0.028,0.175,0.029l1.074,1.494c0.04,0.056,0.027,0.134-0.028,0.174
							C296.253,135.276,296.228,135.284,296.202,135.284z"/>
						<path style="fill:#263238;" d="M297.272,134.657c-0.039,0-0.077-0.018-0.102-0.052l-1.074-1.494
							c-0.04-0.056-0.027-0.134,0.028-0.174c0.056-0.04,0.134-0.027,0.175,0.029l1.074,1.494c0.04,0.056,0.027,0.134-0.028,0.174
							C297.323,134.649,297.298,134.657,297.272,134.657z"/>
						<path style="fill:#263238;" d="M298.344,134.03c-0.039,0-0.077-0.018-0.102-0.052l-1.074-1.494
							c-0.04-0.056-0.027-0.134,0.028-0.174c0.057-0.041,0.134-0.028,0.175,0.029l1.074,1.494c0.04,0.056,0.027,0.134-0.028,0.174
							C298.395,134.023,298.369,134.03,298.344,134.03z"/>
					</g>
					<g>
						<path style="fill:#263238;" d="M300.456,134.875c-0.039,0-0.077-0.018-0.102-0.052l-2.115-2.941
							c-0.04-0.056-0.027-0.134,0.028-0.174c0.057-0.04,0.134-0.028,0.175,0.029l2.115,2.94c0.04,0.056,0.027,0.134-0.028,0.174
							C300.507,134.867,300.481,134.875,300.456,134.875z"/>
						<path style="fill:#263238;" d="M300.452,132.813c-0.039,0-0.077-0.018-0.102-0.052l-1.073-1.494
							c-0.04-0.056-0.027-0.134,0.028-0.174c0.057-0.041,0.134-0.028,0.175,0.029l1.073,1.494c0.04,0.056,0.027,0.134-0.028,0.174
							C300.503,132.805,300.478,132.813,300.452,132.813z"/>
						<path style="fill:#263238;" d="M301.523,132.186c-0.039,0-0.077-0.018-0.102-0.052l-1.074-1.493
							c-0.04-0.056-0.027-0.134,0.028-0.175c0.057-0.04,0.135-0.027,0.175,0.029l1.074,1.493c0.04,0.056,0.027,0.134-0.028,0.175
							C301.574,132.178,301.549,132.186,301.523,132.186z"/>
						<path style="fill:#263238;" d="M302.595,131.56c-0.039,0-0.077-0.018-0.102-0.052l-1.074-1.494
							c-0.04-0.056-0.027-0.134,0.028-0.174c0.056-0.041,0.134-0.028,0.175,0.029l1.074,1.494c0.04,0.056,0.027,0.134-0.028,0.174
							C302.646,131.552,302.62,131.56,302.595,131.56z"/>
						<path style="fill:#263238;" d="M303.666,130.933c-0.039,0-0.077-0.018-0.101-0.052l-1.074-1.493
							c-0.04-0.056-0.027-0.134,0.028-0.175c0.057-0.04,0.135-0.028,0.175,0.029l1.074,1.493c0.04,0.056,0.027,0.134-0.028,0.175
							C303.717,130.925,303.691,130.933,303.666,130.933z"/>
					</g>
					<g>
						<path style="fill:#263238;" d="M305.777,131.777c-0.039,0-0.077-0.018-0.102-0.052l-2.114-2.94
							c-0.04-0.056-0.027-0.134,0.028-0.174c0.057-0.04,0.134-0.028,0.175,0.029l2.114,2.94c0.04,0.056,0.027,0.134-0.028,0.174
							C305.828,131.77,305.803,131.777,305.777,131.777z"/>
						<path style="fill:#263238;" d="M305.774,129.715c-0.039,0-0.077-0.018-0.102-0.052l-1.074-1.493
							c-0.04-0.056-0.027-0.134,0.028-0.175c0.057-0.039,0.135-0.028,0.175,0.029l1.074,1.493c0.04,0.056,0.027,0.134-0.028,0.175
							C305.825,129.708,305.8,129.715,305.774,129.715z"/>
						<path style="fill:#263238;" d="M306.846,129.089c-0.039,0-0.077-0.018-0.102-0.052l-1.074-1.494
							c-0.04-0.056-0.027-0.134,0.028-0.174c0.057-0.04,0.135-0.028,0.175,0.029l1.074,1.494c0.04,0.056,0.027,0.134-0.028,0.174
							C306.897,129.081,306.871,129.089,306.846,129.089z"/>
						<path style="fill:#263238;" d="M307.917,128.462c-0.039,0-0.077-0.018-0.102-0.052l-1.074-1.493
							c-0.04-0.056-0.027-0.134,0.028-0.175c0.056-0.041,0.134-0.028,0.175,0.029l1.074,1.493c0.04,0.056,0.027,0.134-0.028,0.175
							C307.968,128.454,307.942,128.462,307.917,128.462z"/>
						<path style="fill:#263238;" d="M308.987,127.835c-0.039,0-0.077-0.018-0.102-0.052l-1.074-1.494
							c-0.04-0.056-0.027-0.134,0.028-0.174c0.057-0.041,0.135-0.028,0.175,0.029l1.074,1.494c0.04,0.056,0.027,0.134-0.028,0.174
							C309.038,127.828,309.013,127.835,308.987,127.835z"/>
					</g>
				</g>
			</g>
		</g>
		<g>
			<path style="fill:#E0E0E0;" d="M246.803,187.332l-8.362,3.295c-0.185,0.073-0.155,0.344,0.042,0.375l8.928,1.383L246.803,187.332
				z"/>
			<path style="fill:#BA68C8;" d="M285.68,187.785l-38.27,4.6l0,0c-1.156-1.353-1.424-3.253-0.689-4.873l0.081-0.18l38.27-4.6
				L285.68,187.785z"/>
			<g>
				<path style="fill:#F28F8F;" d="M289.375,187.389l-0.268-5.1l-4.034,0.443c-0.544,0.065-0.836,0.221-1.133,0.785
					c-0.536,1.021-0.472,2.64,0.144,3.615c0.316,0.501,0.716,0.73,1.103,0.701l0,0.01L289.375,187.389z"/>
				<path style="fill:#FFA8A7;" d="M290.265,182.983c0.616,0.975,0.681,2.594,0.144,3.615c-0.536,1.021-1.471,1.058-2.087,0.083
					c-0.616-0.975-0.681-2.594-0.144-3.615C288.715,182.046,289.649,182.008,290.265,182.983z"/>
			</g>
			<path style="fill:#263238;" d="M241.804,190.167c0-0.309,0.036-0.608,0.091-0.901l-3.454,1.361
				c-0.185,0.073-0.155,0.344,0.042,0.375l3.546,0.549C241.897,191.11,241.804,190.652,241.804,190.167z"/>
		</g>
		<g>
			<g>
				<polygon style="fill:#FFA8A7;" points="309.219,318.574 308.671,326.79 322.773,326.945 323.728,320.361 				"/>
				<g>
					<path style="fill:#BA68C8;" d="M309.052,322.13c0,0,2.389,3.743,7.147,3.743c4.758,0,7.022-2.021,7.022-2.021
						s1.09,1.902,1.09,6.176s0,7.401,0,7.401s-2.555,2.302-9.166,2.302c-3.306,0-6.031-0.404-7.93-0.808
						c-2.22-0.472-4.496-0.601-6.763-0.48c-6.906,0.369-20.83-0.045-20.83-9.38c0-6.138,6.214-6.575,14.172-5.314
						C293.795,323.75,301.936,323.858,309.052,322.13z"/>
					<path style="fill:#263238;" d="M307.215,338.923c-2.22-0.472-4.496-0.601-6.763-0.48c-6.651,0.355-19.804-0.019-20.768-8.385
						c-0.035,0.297-0.062,0.603-0.062,0.933c0,9.867,15.556,9.767,21.938,9.311c1.716-0.123,3.433,0.041,5.109,0.428
						c1.904,0.44,4.839,0.929,8.476,0.929c3.447,0,5.791-0.626,7.246-1.225c1.169-0.482,1.92-1.627,1.92-2.892v-0.113
						c0,0-2.555,2.302-9.166,2.302C311.84,339.731,309.115,339.327,307.215,338.923z"/>
					<path style="fill:#FAFAFA;" d="M279.623,329.063c0,5.05,4.076,7.486,8.91,8.603c0.033-13.157,5.262-13.917,5.262-13.917
						C285.837,322.488,279.623,322.926,279.623,329.063z"/>
					<path style="fill:#BA68C8;" d="M303.654,323.177l2.94-2.724c1.196-1.108,3.19-0.613,3.633,0.955
						c0.166,0.588,0.242,1.315,0.159,2.21L303.654,323.177z"/>
					<g>
						<path style="fill:#FAFAFA;" d="M293.292,330.016c-0.01,0-0.02,0-0.029-0.001c-0.261-0.017-0.458-0.24-0.441-0.5
							c0.349-5.529,3.241-6.404,3.363-6.438c0.251-0.072,0.511,0.075,0.582,0.326c0.07,0.25-0.074,0.509-0.321,0.581
							c-0.103,0.031-2.379,0.79-2.683,5.59C293.747,329.823,293.539,330.016,293.292,330.016z"/>
						<path style="fill:#FAFAFA;" d="M297.3,329.902c-0.006,0-0.012,0-0.018,0c-0.261-0.01-0.464-0.229-0.454-0.489
							c0.212-5.537,3.083-6.47,3.205-6.506c0.254-0.08,0.513,0.065,0.588,0.315c0.075,0.248-0.064,0.51-0.311,0.587
							c-0.109,0.036-2.356,0.846-2.539,5.64C297.762,329.703,297.553,329.902,297.3,329.902z"/>
						<path style="fill:#FAFAFA;" d="M301.572,329.972c-0.241,0-0.447-0.185-0.469-0.43c-0.494-5.531,2.251-6.75,2.368-6.799
							c0.239-0.103,0.517,0.011,0.617,0.252c0.101,0.238-0.01,0.513-0.247,0.615c-0.102,0.046-2.225,1.072-1.799,5.848
							c0.023,0.26-0.168,0.489-0.428,0.512C301.601,329.972,301.587,329.972,301.572,329.972z"/>
					</g>
				</g>
			</g>
			<path style="fill:#FFA8A7;" d="M306.164,162.931c0,0-9.264-6.042-11.218-9.854c-1.461-2.851-5.012-3.404-4.803-5.265
				c0.21-1.869,6.369-0.976,8.368,1.869c0,0-0.981-4.188-3.278-6.363c-0.8-0.758-1.606-1.479-2.409-2.226
				c-2.645-2.458,5.411-3.998,6.437-4.131c3.74-0.484,6.685,0.098,9.687,2.662c5.684,4.855,9.616,18.461,9.616,18.461
				L306.164,162.931z"/>
			<path style="fill:#FFA8A7;" d="M341.199,181.845l-22.769-24.091c0,0-9.856-1.822-12.266,5.177c0,0,17.103,25.685,23.056,32.704
				c0.903,1.065,1.876,1.554,2.876,1.63l-0.002,0.004l55.801,10.555v-19.772L341.199,181.845z"/>
			<path style="fill:#37474F;" d="M334.242,245.21c0,0-21.15-7.716-25.023,7.479c-3.873,15.195,0,65.885,0,65.885
				s5.32,5.388,14.509,1.786c0,0,3.482-19.476,6.731-26.479c3.249-7.003,0.305-18.3-0.507-23.492L334.242,245.21z"/>
			<g>
				<polygon style="fill:#FFA8A7;" points="277.939,336.951 277.39,345.167 291.492,345.322 292.448,338.737 				"/>
				<g>
					<path style="fill:#BA68C8;" d="M277.772,340.507c0,0,2.389,3.743,7.147,3.743c4.758,0,7.022-2.021,7.022-2.021
						s1.09,1.902,1.09,6.176s0,7.401,0,7.401s-2.554,2.302-9.166,2.302c-3.306,0-6.031-0.404-7.93-0.808
						c-2.22-0.473-4.496-0.601-6.763-0.48c-6.906,0.369-20.83-0.045-20.83-9.38c0-6.138,6.214-6.575,14.172-5.314
						C262.515,342.126,270.655,342.235,277.772,340.507z"/>
					<path style="fill:#263238;" d="M275.935,357.3c-2.22-0.473-4.496-0.601-6.763-0.48c-6.65,0.355-19.804-0.019-20.768-8.385
						c-0.035,0.298-0.062,0.603-0.062,0.933c0,9.867,15.556,9.767,21.938,9.311c1.716-0.123,3.433,0.041,5.109,0.428
						c1.905,0.44,4.839,0.929,8.476,0.929c3.447,0,5.791-0.626,7.246-1.225c1.169-0.482,1.92-1.627,1.92-2.892v-0.113
						c0,0-2.554,2.302-9.166,2.302C280.559,358.108,277.834,357.704,275.935,357.3z"/>
					<path style="fill:#FAFAFA;" d="M248.342,347.44c0,5.05,4.076,7.486,8.91,8.603c0.033-13.158,5.262-13.917,5.262-13.917
						C254.556,340.865,248.342,341.302,248.342,347.44z"/>
					<path style="fill:#BA68C8;" d="M272.373,341.554l2.94-2.724c1.196-1.108,3.19-0.613,3.633,0.955
						c0.166,0.588,0.243,1.315,0.159,2.211L272.373,341.554z"/>
					<g>
						<path style="fill:#FAFAFA;" d="M262.012,348.393c-0.01,0-0.02,0-0.029-0.001c-0.261-0.017-0.458-0.24-0.441-0.5
							c0.349-5.529,3.239-6.405,3.362-6.44c0.253-0.069,0.512,0.075,0.582,0.326c0.07,0.25-0.074,0.509-0.322,0.581
							c-0.108,0.033-2.378,0.798-2.681,5.591C262.467,348.2,262.259,348.393,262.012,348.393z"/>
						<path style="fill:#FAFAFA;" d="M266.02,348.279c-0.006,0-0.012,0-0.017,0c-0.261-0.01-0.464-0.229-0.454-0.489
							c0.212-5.537,3.083-6.471,3.205-6.507c0.256-0.079,0.513,0.065,0.588,0.314c0.075,0.248-0.063,0.51-0.31,0.587
							c-0.109,0.037-2.357,0.847-2.539,5.641C266.481,348.08,266.272,348.279,266.02,348.279z"/>
						<path style="fill:#FAFAFA;" d="M270.292,348.349c-0.241,0-0.447-0.185-0.469-0.43c-0.494-5.53,2.25-6.751,2.367-6.8
							c0.237-0.102,0.517,0.011,0.617,0.252c0.101,0.238-0.01,0.513-0.247,0.615c-0.1,0.045-2.225,1.07-1.798,5.849
							c0.023,0.26-0.168,0.489-0.428,0.512C270.32,348.349,270.307,348.349,270.292,348.349z"/>
					</g>
				</g>
			</g>
			<path style="fill:#37474F;" d="M308.297,256.357c0,0-21.442-5.998-25.316,9.197c-3.874,15.195-5.043,71.397-5.043,71.397
				s5.32,5.388,14.509,1.786c0,0,3.482-19.476,6.731-26.479c3.249-7.003,5.348-23.813,4.535-29.004L308.297,256.357z"/>
			<path style="fill:#263238;" d="M337.94,317.331l14.007,86.266c0.183,1.114,1.146,1.932,2.275,1.932l0,0
				c1.374,0,2.443-1.195,2.291-2.56l-10.393-88.604L337.94,317.331z"/>
			<path style="fill:#263238;" d="M316.682,299.624l-15.453,73.264c-0.233,1.105-1.232,1.878-2.36,1.827l0,0
				c-1.373-0.063-2.386-1.305-2.172-2.662l11.949-75.765L316.682,299.624z"/>
			<path style="fill:#263238;" d="M363.905,272.937l-15.453,73.264c-0.233,1.105-1.232,1.878-2.36,1.827l0,0
				c-1.373-0.062-2.386-1.304-2.172-2.662l11.949-75.764L363.905,272.937z"/>
			<path style="fill:#263238;" d="M387.531,303.091l12.109,73.89c0.183,1.114,1.146,1.932,2.275,1.932l0,0
				c1.374,0,2.443-1.195,2.291-2.56l-8.495-76.229L387.531,303.091z"/>
			<path style="fill:#BA68C8;" d="M299.99,288.059l1.025,2.822c1.576,3.236,4.443,6.202,8.489,8.952
				c15.355,10.437,29.918,21.548,36.616,14.531c6.698-7.017,17.722-38.653,20.337-47.843c0.477-1.675,1.016-3.27,1.586-4.824
				l-14.106-4.697c-6.871-2.288-14.409-1.317-20.476,2.637l-27.941,18.21c-3.45,2.249-5.531,6.088-5.531,10.207l0,0
				C299.989,288.055,299.99,288.057,299.99,288.059z"/>
			<path style="fill:#37474F;" d="M334.242,245.21l65.348,21.661c0,0,2.572,23.003-26.506,35.041l-47.559-32.31
				C325.526,269.602,324.793,246.508,334.242,245.21z"/>
			<polygon style="fill:#263238;" points="308.297,256.357 346.563,267.156 349.7,263.844 308.821,254.518 			"/>
			<path style="fill:#37474F;" d="M387.531,274.109c0,0,2.54,32.436-34.998,32.436c-22.188,0-53.995-27.412-53.995-27.412
				l9.759-22.776l38.266,10.799L387.531,274.109z"/>
			<g>
				<path style="fill:#BA68C8;" d="M396.723,247.018c-0.97-6.716-1.101-13.524-0.384-20.272c0.717-6.755,1.518-15.032,1.518-18.3
					l-0.002-0.001c0.154-9.376-4.171-20.653-9.559-23.616l-7.684,1.414l-17.144,4.745l-7.995,1.665c0,0-15.707,15.319-15.707,33.287
					c0,0.791,0.107,1.554,0.263,2.299l-0.028,0.051l0.052,0.07c1.467,6.629,8.404,11.241,8.404,11.241s0.956,5.379,0.956,13.777
					c0,8.399-2.849,13.778-2.849,13.778s6.402,14.516,25.743,14.516c13.334,0,24.054-9.496,27.284-14.801L396.723,247.018z"/>
				<path style="opacity:0.5;" d="M396.723,247.018c-0.97-6.716-1.101-13.524-0.384-20.272c0.717-6.755,1.518-15.032,1.518-18.3
					l-0.002-0.001c0.154-9.376-4.171-20.653-9.559-23.616l-7.684,1.414l-17.144,4.745l-7.995,1.665c0,0-15.707,15.319-15.707,33.287
					c0,0.791,0.107,1.554,0.263,2.299l-0.028,0.051l0.052,0.07c1.467,6.629,8.404,11.241,8.404,11.241s0.956,5.379,0.956,13.777
					c0,8.399-2.849,13.778-2.849,13.778s6.402,14.516,25.743,14.516c13.334,0,24.054-9.496,27.284-14.801L396.723,247.018z"/>
			</g>
			<path style="fill:#FFA8A7;" d="M376.469,191.185c-5.879,1.873-13.001-0.196-13.001-0.196V171.11h16.98v16.06
				C380.448,187.17,379.787,190.128,376.469,191.185z"/>
			<polygon style="fill:#F28F8F;" points="349.811,158.245 349.811,167.67 344.293,165.976 			"/>
			<path style="fill:#263238;" d="M378.887,133.712c-3.676-0.96-16.52-3.571-27.939,5.97c-2.524,2.109-5.421,7.724-6.352,14.743
				c0,0,1.034,0.945,4.678,2.528L378.887,133.712z"/>
			<path style="fill:#FFA8A7;" d="M370.848,137.583c-5.613-0.617-17.889,1.199-20.88,15.732
				c-2.991,14.533-2.915,26.074,4.545,27.998c7.459,1.925,25.656-1.627,30.102-20.378
				C389.061,142.185,376.322,138.185,370.848,137.583z"/>
			<path style="fill:#263238;" d="M355.332,141.123c0,0-1.941,7.615,1.032,13.591c1.527,3.07,1.875,6.677,0.643,9.897
				c-0.605,1.581-1.436,3.174-2.575,4.457c0,0,3.984-0.693,5.719-5.867c0,0,2.416,5.172,2.926,8.743
				c0.511,3.571,2.652,6.578,9.307,8.42c3.232,0.895,7.37,0.481,9.5-0.843c0,0,6.517-4.44,9.133-8.068
				c2.616-3.628,8.276-16.512,2.403-26.596C387.547,134.77,372.652,126.326,355.332,141.123z"/>
			<path style="fill:#263238;" d="M362.603,169.76c0,0-0.277,7.501-2.237,11.78c-1.961,4.28-5.843,14.412,4.983,17.959
				c0,0-2.645-3.768-0.665-6.239c0,0,10.442,13.444,25.347,0.891c0,0-4.721-1.237-5.66-5.094c0,0,11.621,10.572,18.917-4.226
				c0,0-12.544-8.996-8.797-20.787L362.603,169.76z"/>
			<path style="fill:#FFA8A7;" d="M360.583,163.2c0,0,0.738-6.185,5.037-6.245c4.72-0.067,5.297,4.485,5.212,6.101
				c-0.224,4.245-2.797,8.382-10.249,6.012V163.2z"/>
			<path style="fill:#263238;" d="M355.332,141.123c0,0-4.954,3.694-4.124,16.414c0,0,2.913,1.43,5.132,0.994
				c0,0-0.503-6.881,2.224-12.207L355.332,141.123z"/>
			<path style="fill:#FFA8A7;" d="M277.195,198.847c0,0-1.187-2.926-1.704-4.367c-0.518-1.442-1.811-4.254-2.546-5.172l-6.488,0.788
				c0,0-4.478-2.442-6.748-5.204c-2.271-2.763-6.568-6.522-7.876-3.687c-1.308,2.836-1.433,11.556,0.373,14.155
				c1.806,2.599,5.585,7.618,15.078,12.376L277.195,198.847z"/>
			<path style="fill:#FFA8A7;" d="M329.245,202.494l-24.729,10.314l-27.32-13.961c0,0-9.912,1.486-9.912,8.888
				c0,0,24.534,18.717,32.448,23.416c7.914,4.698,49.34-16.222,49.34-16.222L329.245,202.494z"/>
			<g>
				<path style="fill:#BA68C8;" d="M324.825,203.385c0,0-2.637,11.519,6.471,20.358c0,0,31.368-8.814,28.732-23.878
					c-1.092-6.24-4.555-7.211-4.555-7.211s-2.928-1.155-14.311,3.708C329.778,201.225,324.825,203.385,324.825,203.385z"/>
				<path style="opacity:0.7;" d="M324.825,203.385c0,0-2.637,11.519,6.471,20.358c0,0,31.368-8.814,28.732-23.878
					c-1.092-6.24-4.555-7.211-4.555-7.211s-2.928-1.155-14.311,3.708C329.778,201.225,324.825,203.385,324.825,203.385z"/>
			</g>
			<g>
				<path style="fill:#BA68C8;" d="M299.6,284.83c0,0,0,5.963,0,7.16c0,1.197-0.012,5.633,7.916,12.005
					c7.928,6.372,25.57,17.458,33.528,18.598c18.457,2.643,26.123-64.895,46.545-81.289c17.444-14.003,27.247-13.359,27.247-13.359
					s-1.281-1.194-3.465-2.314c-4.124-2.113-35.044,6.208-44.913,40.89c-2.615,9.191-13.64,40.826-20.337,47.843
					c-6.698,7.017-21.261-4.094-36.616-14.531C303.06,295.453,299.6,290.526,299.6,284.83z"/>
				<path style="opacity:0.3;" d="M299.6,284.83c0,0,0,5.963,0,7.16c0,1.197-0.012,5.633,7.916,12.005
					c7.928,6.372,25.57,17.458,33.528,18.598c18.457,2.643,26.123-64.895,46.545-81.289c17.444-14.003,27.247-13.359,27.247-13.359
					s-1.281-1.194-3.465-2.314c-4.124-2.113-35.044,6.208-44.913,40.89c-2.615,9.191-13.64,40.826-20.337,47.843
					c-6.698,7.017-21.261-4.094-36.616-14.531C303.06,295.453,299.6,290.526,299.6,284.83z"/>
			</g>
			<path style="fill:#BA68C8;" d="M414.836,227.944c0,0-9.802-0.644-27.247,13.359c-20.423,16.394-28.088,83.932-46.545,81.289
				c10.847,4.103,31.262-7.771,50.299-17.769c19.036-9.998,19.892-13.559,24.019-30.547
				C424.197,237.916,418.103,230.158,414.836,227.944z"/>
		</g>
	</g>
</g>
</svg>
